G04 ================== begin FILE IDENTIFICATION RECORD ==================*
G04 Layout Name:  beagle_bone_lemus.brd*
G04 Film Name:    BOTL*
G04 File Format:  Gerber RS274X*
G04 File Origin:  Cadence Allegro 25.1-S010*
G04 Origin Date:  Tue May 12 02:16:05 2026*
G04 *
G04 Layer:  VIA CLASS/BOTTOM*
G04 Layer:  PIN/BOTTOM*
G04 Layer:  ETCH/BOTTOM*
G04 *
G04 Offset:    (0.0000 0.0000)*
G04 Mirror:    No*
G04 Mode:      Positive*
G04 Rotation:  0*
G04 FullContactRelief:  No*
G04 UndefLineWidth:     0.1000*
G04 ================== end FILE IDENTIFICATION RECORD ====================*
%FSLAX25Y25*MOMM*%
%IR0*IPPOS*OFA0.00000B0.00000*MIA0B0*SFA1.00000B1.00000*%
%ADD21C,.35*%
%ADD15C,.508*%
%ADD11O,1.9X3.8*%
%ADD12O,3.8X1.9*%
%ADD17R,.35X.25*%
%ADD16R,.25X.35*%
%ADD20C,1.7*%
%ADD18C,1.524*%
%ADD23C,1.4224*%
%ADD14C,2.1082*%
%ADD19C,1.1176*%
%ADD10C,1.397*%
%ADD24C,2.8194*%
%ADD13C,3.7592*%
%ADD22R,1.397X1.397*%
%ADD25C,.0762*%
G75*
%LPD*%
G75*
G54D10*
X212000Y2870700D03*
Y3856300D03*
X364000Y2616700D03*
Y3602300D03*
X1337000Y2919000D03*
Y3173000D03*
Y3427000D03*
Y3681000D03*
X1591000Y2792000D03*
Y3046000D03*
Y3300000D03*
Y3554000D03*
X10656000Y1773000D03*
G54D20*
X6685000Y1102000D03*
X6939000D03*
X7193000D03*
X7447000D03*
X7701000D03*
X7955000D03*
G54D11*
X390000Y913000D03*
X983000D03*
G54D12*
X623000Y440000D03*
G54D21*
X7420920Y3917070D03*
X7500930D03*
Y3997080D03*
Y4077060D03*
Y4157070D03*
Y4237080D03*
X7580920Y3837080D03*
Y3997080D03*
Y4077060D03*
Y4157070D03*
Y4237080D03*
X7668000Y4232000D03*
X7814000Y3614000D03*
X7811000Y3706000D03*
X7810000Y3799000D03*
X7812010Y4031010D03*
X7816000Y4156000D03*
X7934000Y3158000D03*
X8033000Y3441000D03*
X8065000Y3888000D03*
X8073000Y3985000D03*
X8061500Y3938500D03*
X8217030Y3416990D03*
X8297040D03*
Y3497010D03*
X8217030D03*
Y3577010D03*
X8297040D03*
X8217030Y3737030D03*
X8297040Y3657030D03*
Y3737030D03*
X8217030Y3657030D03*
X8297040Y3897060D03*
X8217030D03*
X8297040Y3977070D03*
X8377050Y3416990D03*
Y3497010D03*
Y3577010D03*
Y3657030D03*
Y3737030D03*
Y3817050D03*
Y3897060D03*
Y3977070D03*
X8764950Y3416990D03*
Y3497010D03*
Y3577010D03*
Y3657030D03*
Y3817050D03*
Y4124930D03*
Y4204940D03*
Y4284950D03*
Y4364970D03*
X8844960Y3416990D03*
Y3497010D03*
Y3577010D03*
Y3657030D03*
Y3737030D03*
Y3817050D03*
Y3897060D03*
Y3977070D03*
Y4204940D03*
Y4124930D03*
Y4284950D03*
Y4364970D03*
Y4444970D03*
X8924970Y3416990D03*
Y3497010D03*
Y3577010D03*
Y3737030D03*
Y3657030D03*
Y3897060D03*
Y4124930D03*
Y4364970D03*
Y4444970D03*
G54D22*
X10656000Y1265000D03*
G54D13*
X700000Y2665000D03*
Y3808000D03*
G54D14*
X1007000Y2451000D03*
Y4021000D03*
G54D23*
X12210800Y2211600D03*
Y2463060D03*
Y2663720D03*
Y2915180D03*
G54D24*
X12482000Y1907000D03*
X12483000Y3221000D03*
G54D15*
X2527520Y1379520D03*
Y1458260D03*
Y1537000D03*
Y1615740D03*
Y1694480D03*
X2685000Y1379520D03*
X2606260D03*
X2685000Y1458260D03*
X2606260D03*
X2685000Y1537000D03*
X2606260D03*
X2685000Y1615740D03*
X2606260D03*
X2685000Y1694480D03*
X2606260D03*
X2763740Y1379520D03*
Y1458260D03*
Y1537000D03*
Y1615740D03*
Y1694480D03*
X2842480Y1379520D03*
Y1458260D03*
Y1537000D03*
Y1615740D03*
Y1694480D03*
G54D25*
G01X7420920Y3917070D02*
X7454930Y3951080D01*
X7538380D01*
X7546000Y3943460D01*
Y3660000D01*
X7914000Y3292000D01*
X8788000D01*
X8809000Y3313000D01*
Y3461050D01*
X8844960Y3497010D01*
G01X7500930Y3917070D02*
X7524990Y3893010D01*
Y3644010D01*
X7912000Y3257000D01*
X8835000D01*
X8844960Y3266960D01*
Y3416990D01*
G01X7538210Y4038710D02*
X7546910Y4030010D01*
G01X7810000Y3799000D02*
Y3847980D01*
X7580920Y4077060D01*
G01X8377050Y3416990D02*
X8335060Y3375000D01*
X8045000D01*
X7885320Y3534680D01*
Y4134780D01*
X7754090Y4266010D01*
X7609850D01*
X7580920Y4237080D01*
G01X7816000Y4156000D02*
X7771690Y4111690D01*
Y4023050D01*
X7865000Y3929740D01*
Y3443000D01*
X7960000Y3348000D01*
X8615940D01*
X8764950Y3497010D01*
G01X8065000Y3888000D02*
X8089950Y3863050D01*
X8343040D01*
X8377050Y3897060D01*
G01X8061500Y3938500D02*
X8175590D01*
X8217030Y3897060D01*
G54D16*
X4185500Y6404000D03*
X4240500D03*
X4524500Y6261000D03*
X4530500Y6353000D03*
X4475500D03*
X4622500Y6006000D03*
X4579500Y6261000D03*
X4677500Y6006000D03*
X6402500Y3911000D03*
X6347500D03*
X6401500Y4313000D03*
X6346500D03*
X6595500Y4631000D03*
X6666500Y3991000D03*
X6668500Y4071000D03*
X6669500Y4151000D03*
X6667500Y4231000D03*
X6671500Y4391000D03*
X6679500Y4471000D03*
X6650500Y4631000D03*
X6771500Y3832000D03*
X6721500Y3991000D03*
X6723500Y4071000D03*
X6724500Y4151000D03*
X6722500Y4231000D03*
X6726500Y4391000D03*
X6734500Y4471000D03*
X6826500Y3832000D03*
X6838500Y4391000D03*
X6839500Y4471000D03*
X6938500Y3911000D03*
X6917500Y3991000D03*
X6972500D03*
X6893500Y4391000D03*
X6919500Y4311000D03*
X6974500D03*
X6894500Y4471000D03*
X6907500Y4791000D03*
X6962500D03*
X6981500Y4870000D03*
X6926500D03*
X7039500Y3830000D03*
X6984500D03*
X7027500Y3911000D03*
X6993500D03*
X7070500Y3990000D03*
X6993500Y4071000D03*
X7048500D03*
X6999500Y4231000D03*
X7054500D03*
X7065500Y4711000D03*
X7010500D03*
X7067500Y4791000D03*
X7012500D03*
X7084500Y3831000D03*
X7139500D03*
X7082500Y3911000D03*
X7125500Y3990000D03*
X7159500Y4072000D03*
X7161500Y4151000D03*
X7162500Y4231000D03*
X7156500Y4392000D03*
X7146500Y4631000D03*
X7150500Y4711000D03*
X7153500Y4791000D03*
X7226500Y3911000D03*
X7171500D03*
X7214500Y4072000D03*
X7216500Y4151000D03*
X7217500Y4231000D03*
X7211500Y4392000D03*
X7201500Y4631000D03*
X7205500Y4711000D03*
X7208500Y4791000D03*
X7331500Y3830000D03*
X7310500Y3910000D03*
X7331500Y4071000D03*
X7327500Y4152000D03*
X7330500Y4230000D03*
Y4631000D03*
X7307500Y4791000D03*
X7386500Y3830000D03*
X7412500Y3751000D03*
X7365500Y3910000D03*
X7386500Y4071000D03*
X7382500Y4152000D03*
X7385500Y4230000D03*
Y4631000D03*
X7362500Y4791000D03*
X7442500Y4872000D03*
X7387500D03*
X7442500Y5031000D03*
X7387500D03*
X7442500Y5113000D03*
X7387500D03*
X7467500Y3751000D03*
X7604500Y4303000D03*
X7549500D03*
X8156500Y3975000D03*
X8187500Y4454000D03*
X8132500D03*
X8158500Y4614000D03*
X8190500Y4704000D03*
X8211500Y3975000D03*
X8213500Y4614000D03*
X8245500Y4704000D03*
X8635500Y4209000D03*
X8690500D03*
X8811500Y4704000D03*
X8866500D03*
X8957500Y4328000D03*
X9012500D03*
G54D17*
X4273000Y6599500D03*
Y6544500D03*
X4325000Y6600500D03*
Y6545500D03*
X4426000Y6252500D03*
Y6197500D03*
X4425000Y6598500D03*
Y6543500D03*
X4375000Y6600500D03*
Y6545500D03*
X4475000Y6599500D03*
Y6544500D03*
X4527000Y6598500D03*
Y6543500D03*
X4577000Y6598500D03*
Y6543500D03*
X4637000Y6598500D03*
Y6543500D03*
X4773000Y6048500D03*
Y6103500D03*
X6627000Y4283500D03*
Y4338500D03*
X6707000Y4742500D03*
Y4687500D03*
X6785000Y4006500D03*
Y3951500D03*
X6787000Y4111500D03*
Y4166500D03*
X6789000Y4419500D03*
Y4474500D03*
X6787000Y4741500D03*
Y4686500D03*
X6867000Y3998500D03*
Y3943500D03*
Y4111500D03*
Y4166500D03*
Y4688500D03*
Y4743500D03*
X6947000Y4112500D03*
Y4167500D03*
X6948000Y4741500D03*
Y4686500D03*
X7027000Y3702500D03*
Y3757500D03*
X7108000Y4083500D03*
Y4138500D03*
X7107000Y4523500D03*
Y4578500D03*
X7267000Y3976500D03*
Y4031500D03*
Y4203500D03*
Y4258500D03*
X7188000Y4524500D03*
X7268000Y4594500D03*
Y4649500D03*
X7188000Y4579500D03*
X7268000Y4749500D03*
Y4694500D03*
X7347000Y3969500D03*
Y4024500D03*
Y4282500D03*
Y4337500D03*
Y4376500D03*
Y4431500D03*
X7349000Y4693500D03*
Y4748500D03*
X7428000Y3978500D03*
Y4033500D03*
X7427000Y4295500D03*
Y4350500D03*
Y4453500D03*
Y4508500D03*
X7428000Y4746500D03*
Y4691500D03*
X8201000Y4121500D03*
Y4176500D03*
X8200000Y4256500D03*
Y4311500D03*
X8201000Y4497500D03*
Y4552500D03*
X8954000Y3826500D03*
Y3771500D03*
X8946000Y4494500D03*
Y4549500D03*
X8973000Y3508500D03*
Y3563500D03*
X8968000Y4126500D03*
Y4181500D03*
G54D18*
X4609000Y386000D03*
Y640000D03*
X4709000Y7286000D03*
Y7540000D03*
X4863000Y386000D03*
Y640000D03*
X4963000Y7286000D03*
Y7540000D03*
X5117000Y386000D03*
Y640000D03*
X5217000Y7286000D03*
Y7540000D03*
X5371000Y386000D03*
Y640000D03*
X5471000Y7286000D03*
Y7540000D03*
X5625000Y386000D03*
Y640000D03*
X5725000Y7286000D03*
Y7540000D03*
X5879000Y386000D03*
Y640000D03*
X5979000Y7286000D03*
Y7540000D03*
X6133000Y386000D03*
Y640000D03*
X6233000Y7286000D03*
Y7540000D03*
X6387000Y386000D03*
Y640000D03*
X6487000Y7286000D03*
Y7540000D03*
X6641000Y386000D03*
Y640000D03*
X6741000Y7286000D03*
Y7540000D03*
X6895000Y386000D03*
Y640000D03*
X6995000Y7286000D03*
Y7540000D03*
X7149000Y386000D03*
Y640000D03*
X7249000Y7286000D03*
Y7540000D03*
X7403000Y386000D03*
Y640000D03*
X7503000Y7286000D03*
Y7540000D03*
X7657000Y386000D03*
Y640000D03*
X7757000Y7286000D03*
Y7540000D03*
X7911000Y386000D03*
Y640000D03*
X8011000Y7286000D03*
Y7540000D03*
X8165000Y386000D03*
Y640000D03*
X8265000Y7286000D03*
Y7540000D03*
X8419000Y386000D03*
Y640000D03*
X8519000Y7286000D03*
Y7540000D03*
X8673000Y386000D03*
Y640000D03*
X8773000Y7286000D03*
Y7540000D03*
X8927000Y386000D03*
Y640000D03*
X9027000Y7286000D03*
Y7540000D03*
X9181000Y386000D03*
Y640000D03*
X9281000Y7286000D03*
Y7540000D03*
X9435000Y386000D03*
Y640000D03*
X9535000Y7286000D03*
Y7540000D03*
X9689000Y386000D03*
Y640000D03*
X9789000Y7286000D03*
Y7540000D03*
X9943000Y386000D03*
Y640000D03*
X10043000Y7286000D03*
Y7540000D03*
X10197000Y386000D03*
Y640000D03*
X10297000Y7286000D03*
Y7540000D03*
G54D19*
X5103000Y3313000D03*
Y3440000D03*
Y3567000D03*
Y3694000D03*
Y3821000D03*
Y3948000D03*
Y4075000D03*
Y4202000D03*
Y4329000D03*
Y4456000D03*
X5230000Y3313000D03*
Y3440000D03*
Y3567000D03*
Y3694000D03*
Y3821000D03*
Y3948000D03*
Y4075000D03*
Y4202000D03*
Y4329000D03*
Y4456000D03*
M02*
