G04 ================== begin FILE IDENTIFICATION RECORD ==================*
G04 Layout Name:  beagle_bone_lemus.brd*
G04 Film Name:    PASTEB*
G04 File Format:  Gerber RS274X*
G04 File Origin:  Cadence Allegro 25.1-S010*
G04 Origin Date:  Tue May 12 02:16:06 2026*
G04 *
G04 Layer:  VIA CLASS/PASTEMASK_BOTTOM*
G04 Layer:  PIN/PASTEMASK_BOTTOM*
G04 Layer:  DRC ERROR CLASS/PASTEMASK_BOTTOM*
G04 *
G04 Offset:    (0.0000 0.0000)*
G04 Mirror:    No*
G04 Mode:      Positive*
G04 Rotation:  0*
G04 FullContactRelief:  No*
G04 UndefLineWidth:     0.1000*
G04 ================== end FILE IDENTIFICATION RECORD ====================*
%FSLAX25Y25*MOMM*%
%IR0*IPPOS*OFA0.00000B0.00000*MIA0B0*SFA1.00000B1.00000*%
%ADD11R,.42X.32*%
%ADD10R,.32X.42*%
%LPD*%
G75*
G54D10*
X4185500Y6404000D03*
X4240500D03*
X4524500Y6261000D03*
X4530500Y6353000D03*
X4475500D03*
X4622500Y6006000D03*
X4579500Y6261000D03*
X4677500Y6006000D03*
X6402500Y3911000D03*
X6347500D03*
X6401500Y4313000D03*
X6346500D03*
X6595500Y4631000D03*
X6666500Y3991000D03*
X6668500Y4071000D03*
X6669500Y4151000D03*
X6667500Y4231000D03*
X6671500Y4391000D03*
X6679500Y4471000D03*
X6650500Y4631000D03*
X6771500Y3832000D03*
X6721500Y3991000D03*
X6723500Y4071000D03*
X6724500Y4151000D03*
X6722500Y4231000D03*
X6726500Y4391000D03*
X6734500Y4471000D03*
X6826500Y3832000D03*
X6838500Y4391000D03*
X6839500Y4471000D03*
X6938500Y3911000D03*
X6917500Y3991000D03*
X6972500D03*
X6893500Y4391000D03*
X6919500Y4311000D03*
X6974500D03*
X6894500Y4471000D03*
X6907500Y4791000D03*
X6962500D03*
X6981500Y4870000D03*
X6926500D03*
X7039500Y3830000D03*
X6984500D03*
X7027500Y3911000D03*
X6993500D03*
X7070500Y3990000D03*
X6993500Y4071000D03*
X7048500D03*
X6999500Y4231000D03*
X7054500D03*
X7065500Y4711000D03*
X7010500D03*
X7067500Y4791000D03*
X7012500D03*
X7084500Y3831000D03*
X7139500D03*
X7082500Y3911000D03*
X7125500Y3990000D03*
X7159500Y4072000D03*
X7161500Y4151000D03*
X7162500Y4231000D03*
X7156500Y4392000D03*
X7146500Y4631000D03*
X7150500Y4711000D03*
X7153500Y4791000D03*
X7226500Y3911000D03*
X7171500D03*
X7214500Y4072000D03*
X7216500Y4151000D03*
X7217500Y4231000D03*
X7211500Y4392000D03*
X7201500Y4631000D03*
X7205500Y4711000D03*
X7208500Y4791000D03*
X7331500Y3830000D03*
X7310500Y3910000D03*
X7331500Y4071000D03*
X7327500Y4152000D03*
X7330500Y4230000D03*
Y4631000D03*
X7307500Y4791000D03*
X7386500Y3830000D03*
X7412500Y3751000D03*
X7365500Y3910000D03*
X7386500Y4071000D03*
X7382500Y4152000D03*
X7385500Y4230000D03*
Y4631000D03*
X7362500Y4791000D03*
X7442500Y4872000D03*
X7387500D03*
X7442500Y5031000D03*
X7387500D03*
X7442500Y5113000D03*
X7387500D03*
X7467500Y3751000D03*
X7604500Y4303000D03*
X7549500D03*
X8156500Y3975000D03*
X8187500Y4454000D03*
X8132500D03*
X8158500Y4614000D03*
X8190500Y4704000D03*
X8211500Y3975000D03*
X8213500Y4614000D03*
X8245500Y4704000D03*
X8635500Y4209000D03*
X8690500D03*
X8811500Y4704000D03*
X8866500D03*
X8957500Y4328000D03*
X9012500D03*
G54D11*
X4273000Y6599500D03*
Y6544500D03*
X4325000Y6600500D03*
Y6545500D03*
X4426000Y6252500D03*
Y6197500D03*
X4425000Y6598500D03*
Y6543500D03*
X4375000Y6600500D03*
Y6545500D03*
X4475000Y6599500D03*
Y6544500D03*
X4527000Y6598500D03*
Y6543500D03*
X4577000Y6598500D03*
Y6543500D03*
X4637000Y6598500D03*
Y6543500D03*
X4773000Y6048500D03*
Y6103500D03*
X6627000Y4283500D03*
Y4338500D03*
X6707000Y4742500D03*
Y4687500D03*
X6785000Y4006500D03*
Y3951500D03*
X6787000Y4111500D03*
Y4166500D03*
X6789000Y4419500D03*
Y4474500D03*
X6787000Y4741500D03*
Y4686500D03*
X6867000Y3998500D03*
Y3943500D03*
Y4111500D03*
Y4166500D03*
Y4688500D03*
Y4743500D03*
X6947000Y4112500D03*
Y4167500D03*
X6948000Y4741500D03*
Y4686500D03*
X7027000Y3702500D03*
Y3757500D03*
X7108000Y4083500D03*
Y4138500D03*
X7107000Y4523500D03*
Y4578500D03*
X7267000Y3976500D03*
Y4031500D03*
Y4203500D03*
Y4258500D03*
X7188000Y4524500D03*
X7268000Y4594500D03*
Y4649500D03*
X7188000Y4579500D03*
X7268000Y4749500D03*
Y4694500D03*
X7347000Y3969500D03*
Y4024500D03*
Y4282500D03*
Y4337500D03*
Y4376500D03*
Y4431500D03*
X7349000Y4693500D03*
Y4748500D03*
X7428000Y3978500D03*
Y4033500D03*
X7427000Y4295500D03*
Y4350500D03*
Y4453500D03*
Y4508500D03*
X7428000Y4746500D03*
Y4691500D03*
X8201000Y4121500D03*
Y4176500D03*
X8200000Y4256500D03*
Y4311500D03*
X8201000Y4497500D03*
Y4552500D03*
X8954000Y3826500D03*
Y3771500D03*
X8946000Y4494500D03*
Y4549500D03*
X8973000Y3508500D03*
Y3563500D03*
X8968000Y4126500D03*
Y4181500D03*
M02*
