G04 ================== begin FILE IDENTIFICATION RECORD ==================*
G04 Layout Name:  beagle_bone_lemus.brd*
G04 Film Name:    SILKB*
G04 File Format:  Gerber RS274X*
G04 File Origin:  Cadence Allegro 25.1-S010*
G04 Origin Date:  Tue May 12 02:16:05 2026*
G04 *
G04 Layer:  REF DES/SILKSCREEN_BOTTOM*
G04 Layer:  PACKAGE GEOMETRY/SILKSCREEN_BOTTOM*
G04 Layer:  BOARD GEOMETRY/SILKSCREEN_BOTTOM*
G04 *
G04 Offset:    (0.0000 0.0000)*
G04 Mirror:    No*
G04 Mode:      Positive*
G04 Rotation:  0*
G04 FullContactRelief:  No*
G04 UndefLineWidth:     0.1000*
G04 ================== end FILE IDENTIFICATION RECORD ====================*
%FSLAX25Y25*MOMM*%
%IR0*IPPOS*OFA0.00000B0.00000*MIA0B0*SFA1.00000B1.00000*%
%ADD10C,.508*%
%ADD11C,.1*%
G75*
%LPD*%
G75*
G54D10*
G01X489420Y7221200D02*
G02I-38100J0D01*
G01X1374600Y3871500D02*
G02I-38100J0D01*
G01X2704030Y6329000D02*
G02I-38100J0D01*
G01X2700030Y7048000D02*
G02I-38100J0D01*
G01X5141100Y2830400D02*
G02I-38100J0D01*
G01X10235100Y195500D02*
G02I-38100J0D01*
G01X10335100Y7095500D02*
G02I-38100J0D01*
G01X10493030Y6698000D02*
G02I-38100J0D01*
G01X12016610Y5496700D02*
G02I-38105J0D01*
G54D11*
G01X4135370Y6562420D02*
X4145020Y6568770D01*
X4156270Y6573000D01*
X4169140D01*
X4183620Y6566650D01*
X4194870Y6556070D01*
X4202920Y6543370D01*
X4209350Y6522200D01*
X4210960Y6503150D01*
X4207740Y6484100D01*
X4202920Y6471400D01*
X4193270Y6458700D01*
X4182010Y6450230D01*
X4170750Y6446000D01*
X4159490D01*
X4148230Y6450230D01*
X4138580Y6456580D01*
X4130540Y6465050D01*
G01X4041250Y6446000D02*
Y6573000D01*
X4060550Y6547600D01*
G01Y6446000D02*
X4021950D01*
G01X3911750D02*
Y6573000D01*
X3931050Y6547600D01*
G01Y6446000D02*
X3892450D01*
G01X3817630Y6471400D02*
X3807990Y6456580D01*
X3795120Y6448120D01*
X3780640Y6446000D01*
X3767770Y6448120D01*
X3754910Y6458700D01*
X3746870Y6471400D01*
X3745260Y6484100D01*
X3748470Y6498910D01*
X3759730Y6509500D01*
X3770990Y6513730D01*
X3785470D01*
G01X3770990D02*
X3761340Y6520080D01*
X3753300Y6530660D01*
X3750080Y6543370D01*
X3753300Y6556070D01*
X3761340Y6566650D01*
X3775820Y6573000D01*
X3790290Y6570880D01*
X3804770Y6562420D01*
G01X3923940Y5789500D02*
Y5916500D01*
X3962540D01*
X3975410Y5910150D01*
X3985070Y5895330D01*
X3988280Y5878400D01*
X3985070Y5861470D01*
X3977020Y5848770D01*
X3962540Y5842410D01*
X3923940D01*
G01X3915890Y6439500D02*
X3956110Y6566500D01*
X3996330Y6439500D01*
G01X3981850Y6483950D02*
X3930370D01*
G01X4275000Y6833320D02*
X4148000D01*
X4173400Y6814020D01*
G01X4275000D02*
Y6852620D01*
G01X4228000Y6374000D02*
X4198000D01*
Y6434000D01*
X4228000D01*
Y6374000D01*
G01X4243000Y6557000D02*
Y6587000D01*
X4303000D01*
Y6557000D01*
X4243000D01*
G01X4367000Y6583080D02*
X4494000D01*
Y6623290D01*
X4487650Y6636160D01*
X4479180Y6644200D01*
X4462250Y6647420D01*
X4445320Y6644200D01*
X4434730Y6634550D01*
X4428380Y6623290D01*
Y6583080D01*
G01Y6623290D02*
X4367000Y6647420D01*
G01Y6744750D02*
X4369120Y6756010D01*
X4375460Y6768870D01*
X4386050Y6776920D01*
X4400870Y6780130D01*
X4415680Y6776920D01*
X4428380Y6767270D01*
X4434730Y6752790D01*
Y6736710D01*
X4438970Y6727060D01*
X4449550Y6719010D01*
X4464370Y6715800D01*
X4479180Y6720630D01*
X4489770Y6731880D01*
X4494000Y6744750D01*
X4489770Y6757620D01*
X4479180Y6768870D01*
X4464370Y6773700D01*
X4449550Y6770480D01*
X4438970Y6762440D01*
X4434730Y6752790D01*
Y6736710D01*
X4428380Y6722230D01*
X4415680Y6712580D01*
X4400870Y6709370D01*
X4386050Y6712580D01*
X4375460Y6720630D01*
X4369120Y6733490D01*
X4367000Y6744750D01*
G01Y6874250D02*
X4494000D01*
X4468600Y6854950D01*
G01X4367000D02*
Y6893550D01*
G01X4295000Y6558000D02*
Y6588000D01*
X4355000D01*
Y6558000D01*
X4295000D01*
G01X4345000D02*
Y6588000D01*
X4405000D01*
Y6558000D01*
X4345000D01*
G01X4315000Y6582080D02*
X4442000D01*
Y6622290D01*
X4435650Y6635160D01*
X4427180Y6643200D01*
X4410250Y6646420D01*
X4393320Y6643200D01*
X4382730Y6633550D01*
X4376380Y6622290D01*
Y6582080D01*
G01Y6622290D02*
X4315000Y6646420D01*
G01Y6743750D02*
X4317120Y6755010D01*
X4323460Y6767870D01*
X4334050Y6775920D01*
X4348870Y6779130D01*
X4363680Y6775920D01*
X4376380Y6766270D01*
X4382730Y6751790D01*
Y6735710D01*
X4386970Y6726060D01*
X4397550Y6718010D01*
X4412370Y6714800D01*
X4427180Y6719630D01*
X4437770Y6730880D01*
X4442000Y6743750D01*
X4437770Y6756620D01*
X4427180Y6767870D01*
X4412370Y6772700D01*
X4397550Y6769480D01*
X4386970Y6761440D01*
X4382730Y6751790D01*
Y6735710D01*
X4376380Y6721230D01*
X4363680Y6711580D01*
X4348870Y6708370D01*
X4334050Y6711580D01*
X4323460Y6719630D01*
X4317120Y6732490D01*
X4315000Y6743750D01*
G01X4367910Y6842690D02*
X4382730Y6853950D01*
X4391200Y6863600D01*
X4395430Y6876470D01*
X4391200Y6887730D01*
X4382730Y6895770D01*
X4370030Y6902200D01*
X4355220Y6903810D01*
X4342510Y6902200D01*
X4329810Y6895770D01*
X4319230Y6886120D01*
X4315000Y6874860D01*
X4319230Y6861990D01*
X4331930Y6850730D01*
X4350980Y6844300D01*
X4372150Y6842690D01*
X4399660Y6845910D01*
X4414490Y6850730D01*
X4429300Y6858770D01*
X4439880Y6870030D01*
X4442000Y6881290D01*
X4437770Y6892550D01*
X4427180Y6900590D01*
G01X4584420Y6302630D02*
X4590770Y6292980D01*
X4595000Y6281730D01*
Y6268860D01*
X4588650Y6254380D01*
X4578070Y6243130D01*
X4565370Y6235080D01*
X4544200Y6228650D01*
X4525150Y6227040D01*
X4506100Y6230260D01*
X4493400Y6235080D01*
X4480700Y6244730D01*
X4472230Y6255990D01*
X4468000Y6267250D01*
Y6278510D01*
X4472230Y6289770D01*
X4478580Y6299420D01*
X4487050Y6307460D01*
G01X4468000Y6396750D02*
X4595000D01*
X4569600Y6377450D01*
G01X4468000D02*
Y6416050D01*
G01Y6545550D02*
X4595000D01*
X4503980Y6486040D01*
Y6566460D01*
G01X4468000Y6675050D02*
X4595000D01*
X4503980Y6615540D01*
Y6695960D01*
G01X4396000Y6210000D02*
Y6240000D01*
X4456000D01*
Y6210000D01*
X4396000D01*
G01X4467000Y6581080D02*
X4594000D01*
Y6621290D01*
X4587650Y6634160D01*
X4579180Y6642200D01*
X4562250Y6645420D01*
X4545320Y6642200D01*
X4534730Y6632550D01*
X4528380Y6621290D01*
Y6581080D01*
G01Y6621290D02*
X4467000Y6645420D01*
G01Y6739530D02*
X4494510Y6742750D01*
X4517800Y6747580D01*
X4538970Y6754010D01*
X4562250Y6762050D01*
X4594000Y6774920D01*
Y6710580D01*
G01X4481810Y6844910D02*
X4471230Y6856170D01*
X4467000Y6869030D01*
X4471230Y6881900D01*
X4483930Y6893160D01*
X4502980Y6901200D01*
X4522030Y6904420D01*
X4545320D01*
X4564370Y6901200D01*
X4581300Y6893160D01*
X4589770Y6883510D01*
X4594000Y6872250D01*
X4589770Y6859380D01*
X4581300Y6849730D01*
X4568600Y6843300D01*
X4551660Y6840080D01*
X4536850Y6843300D01*
X4522030Y6851340D01*
X4513560Y6860990D01*
X4511450Y6872250D01*
X4515680Y6885120D01*
X4526270Y6894770D01*
X4545320Y6904420D01*
G01X4395000Y6556000D02*
Y6586000D01*
X4455000D01*
Y6556000D01*
X4395000D01*
G01X4417000Y6583080D02*
X4544000D01*
Y6623290D01*
X4537650Y6636160D01*
X4529180Y6644200D01*
X4512250Y6647420D01*
X4495320Y6644200D01*
X4484730Y6634550D01*
X4478380Y6623290D01*
Y6583080D01*
G01Y6623290D02*
X4417000Y6647420D01*
G01Y6744750D02*
X4419120Y6756010D01*
X4425460Y6768870D01*
X4436050Y6776920D01*
X4450870Y6780130D01*
X4465680Y6776920D01*
X4478380Y6767270D01*
X4484730Y6752790D01*
Y6736710D01*
X4488970Y6727060D01*
X4499550Y6719010D01*
X4514370Y6715800D01*
X4529180Y6720630D01*
X4539770Y6731880D01*
X4544000Y6744750D01*
X4539770Y6757620D01*
X4529180Y6768870D01*
X4514370Y6773700D01*
X4499550Y6770480D01*
X4488970Y6762440D01*
X4484730Y6752790D01*
Y6736710D01*
X4478380Y6722230D01*
X4465680Y6712580D01*
X4450870Y6709370D01*
X4436050Y6712580D01*
X4425460Y6720630D01*
X4419120Y6733490D01*
X4417000Y6744750D01*
G01X4522830Y6843690D02*
X4535530Y6853340D01*
X4541880Y6864600D01*
X4544000Y6877470D01*
X4539770Y6893550D01*
X4529180Y6904810D01*
X4516490Y6908030D01*
X4503780Y6906420D01*
X4493200Y6899980D01*
X4472030Y6867820D01*
X4457220Y6853340D01*
X4436050Y6843690D01*
X4417000Y6840470D01*
Y6908030D01*
G01X4580630Y6194580D02*
X4570980Y6188230D01*
X4559730Y6184000D01*
X4546860D01*
X4532380Y6190350D01*
X4521130Y6200930D01*
X4513080Y6213630D01*
X4506650Y6234800D01*
X4505040Y6253850D01*
X4508260Y6272900D01*
X4513080Y6285600D01*
X4522730Y6298300D01*
X4533990Y6306770D01*
X4545250Y6311000D01*
X4556510D01*
X4567770Y6306770D01*
X4577420Y6300420D01*
X4585460Y6291950D01*
G01X4674750Y6311000D02*
Y6184000D01*
X4655450Y6209400D01*
G01Y6311000D02*
X4694050D01*
G01X4823550D02*
Y6184000D01*
X4764040Y6275020D01*
X4844460D01*
G01X4903190Y6205170D02*
X4912840Y6192470D01*
X4924100Y6186120D01*
X4936970Y6184000D01*
X4953050Y6188230D01*
X4964310Y6198820D01*
X4967530Y6211510D01*
X4965920Y6224220D01*
X4959480Y6234800D01*
X4927320Y6255970D01*
X4912840Y6270780D01*
X4903190Y6291950D01*
X4899970Y6311000D01*
X4967530D01*
G01X4488000Y6383000D02*
X4518000D01*
Y6323000D01*
X4488000D01*
Y6383000D01*
G01X4517000Y6582080D02*
X4644000D01*
Y6622290D01*
X4637650Y6635160D01*
X4629180Y6643200D01*
X4612250Y6646420D01*
X4595320Y6643200D01*
X4584730Y6633550D01*
X4578380Y6622290D01*
Y6582080D01*
G01Y6622290D02*
X4517000Y6646420D01*
G01Y6743750D02*
X4519120Y6755010D01*
X4525460Y6767870D01*
X4536050Y6775920D01*
X4550870Y6779130D01*
X4565680Y6775920D01*
X4578380Y6766270D01*
X4584730Y6751790D01*
Y6735710D01*
X4588970Y6726060D01*
X4599550Y6718010D01*
X4614370Y6714800D01*
X4629180Y6719630D01*
X4639770Y6730880D01*
X4644000Y6743750D01*
X4639770Y6756620D01*
X4629180Y6767870D01*
X4614370Y6772700D01*
X4599550Y6769480D01*
X4588970Y6761440D01*
X4584730Y6751790D01*
Y6735710D01*
X4578380Y6721230D01*
X4565680Y6711580D01*
X4550870Y6708370D01*
X4536050Y6711580D01*
X4525460Y6719630D01*
X4519120Y6732490D01*
X4517000Y6743750D01*
G01X4644000Y6873250D02*
X4639770Y6860380D01*
X4629180Y6850730D01*
X4616490Y6844300D01*
X4599550Y6839470D01*
X4580500Y6837870D01*
X4561450Y6839470D01*
X4544510Y6844300D01*
X4531810Y6850730D01*
X4521230Y6860380D01*
X4517000Y6873250D01*
X4521230Y6886120D01*
X4531810Y6895770D01*
X4544510Y6902200D01*
X4561450Y6907030D01*
X4580500Y6908630D01*
X4599550Y6907030D01*
X4616490Y6902200D01*
X4629180Y6895770D01*
X4639770Y6886120D01*
X4644000Y6873250D01*
G01X4445000Y6557000D02*
Y6587000D01*
X4505000D01*
Y6557000D01*
X4445000D01*
G01X4569000Y6581080D02*
X4696000D01*
Y6621290D01*
X4689650Y6634160D01*
X4681180Y6642200D01*
X4664250Y6645420D01*
X4647320Y6642200D01*
X4636730Y6632550D01*
X4630380Y6621290D01*
Y6581080D01*
G01Y6621290D02*
X4569000Y6645420D01*
G01Y6742750D02*
X4571120Y6754010D01*
X4577460Y6766870D01*
X4588050Y6774920D01*
X4602870Y6778130D01*
X4617680Y6774920D01*
X4630380Y6765270D01*
X4636730Y6750790D01*
Y6734710D01*
X4640970Y6725060D01*
X4651550Y6717010D01*
X4666370Y6713800D01*
X4681180Y6718630D01*
X4691770Y6729880D01*
X4696000Y6742750D01*
X4691770Y6755620D01*
X4681180Y6766870D01*
X4666370Y6771700D01*
X4651550Y6768480D01*
X4640970Y6760440D01*
X4636730Y6750790D01*
Y6734710D01*
X4630380Y6720230D01*
X4617680Y6710580D01*
X4602870Y6707370D01*
X4588050Y6710580D01*
X4577460Y6718630D01*
X4571120Y6731490D01*
X4569000Y6742750D01*
G01X4594400Y6836870D02*
X4579580Y6846510D01*
X4571120Y6859380D01*
X4569000Y6873860D01*
X4571120Y6886730D01*
X4581700Y6899590D01*
X4594400Y6907630D01*
X4607100Y6909240D01*
X4621910Y6906030D01*
X4632500Y6894770D01*
X4636730Y6883510D01*
Y6869030D01*
G01Y6883510D02*
X4643080Y6893160D01*
X4653660Y6901200D01*
X4666370Y6904420D01*
X4679070Y6901200D01*
X4689650Y6893160D01*
X4696000Y6878680D01*
X4693880Y6864210D01*
X4685420Y6849730D01*
G01X4497000Y6556000D02*
Y6586000D01*
X4557000D01*
Y6556000D01*
X4497000D01*
G01X4629630Y6102580D02*
X4619980Y6096230D01*
X4608730Y6092000D01*
X4595860D01*
X4581380Y6098350D01*
X4570130Y6108930D01*
X4562080Y6121630D01*
X4555650Y6142800D01*
X4554040Y6161850D01*
X4557260Y6180900D01*
X4562080Y6193600D01*
X4571730Y6206300D01*
X4582990Y6214770D01*
X4594250Y6219000D01*
X4605510D01*
X4616770Y6214770D01*
X4626420Y6208420D01*
X4634460Y6199950D01*
G01X4723750Y6219000D02*
Y6092000D01*
X4704450Y6117400D01*
G01Y6219000D02*
X4743050D01*
G01X4872550D02*
Y6092000D01*
X4813040Y6183020D01*
X4893460D01*
G01X4952190Y6166090D02*
X4963450Y6151270D01*
X4973100Y6142800D01*
X4985970Y6138570D01*
X4997230Y6142800D01*
X5005270Y6151270D01*
X5011700Y6163970D01*
X5013310Y6178780D01*
X5011700Y6191490D01*
X5005270Y6204190D01*
X4995620Y6214770D01*
X4984360Y6219000D01*
X4971490Y6214770D01*
X4960230Y6202070D01*
X4953800Y6183020D01*
X4952190Y6161850D01*
X4955410Y6134340D01*
X4960230Y6119510D01*
X4968270Y6104700D01*
X4979530Y6094120D01*
X4990790Y6092000D01*
X5002050Y6096230D01*
X5010090Y6106820D01*
G01X4537000Y6291000D02*
X4567000D01*
Y6231000D01*
X4537000D01*
Y6291000D01*
G01X4619000Y6581080D02*
X4746000D01*
Y6621290D01*
X4739650Y6634160D01*
X4731180Y6642200D01*
X4714250Y6645420D01*
X4697320Y6642200D01*
X4686730Y6632550D01*
X4680380Y6621290D01*
Y6581080D01*
G01Y6621290D02*
X4619000Y6645420D01*
G01Y6742750D02*
X4621120Y6754010D01*
X4627460Y6766870D01*
X4638050Y6774920D01*
X4652870Y6778130D01*
X4667680Y6774920D01*
X4680380Y6765270D01*
X4686730Y6750790D01*
Y6734710D01*
X4690970Y6725060D01*
X4701550Y6717010D01*
X4716370Y6713800D01*
X4731180Y6718630D01*
X4741770Y6729880D01*
X4746000Y6742750D01*
X4741770Y6755620D01*
X4731180Y6766870D01*
X4716370Y6771700D01*
X4701550Y6768480D01*
X4690970Y6760440D01*
X4686730Y6750790D01*
Y6734710D01*
X4680380Y6720230D01*
X4667680Y6710580D01*
X4652870Y6707370D01*
X4638050Y6710580D01*
X4627460Y6718630D01*
X4621120Y6731490D01*
X4619000Y6742750D01*
G01Y6891550D02*
X4746000D01*
X4654980Y6832040D01*
Y6912460D01*
G01X4547000Y6556000D02*
Y6586000D01*
X4607000D01*
Y6556000D01*
X4547000D01*
G01X4607000D02*
Y6586000D01*
X4667000D01*
Y6556000D01*
X4607000D01*
G01X4727630Y5847580D02*
X4717980Y5841230D01*
X4706730Y5837000D01*
X4693860D01*
X4679380Y5843350D01*
X4668130Y5853930D01*
X4660080Y5866630D01*
X4653650Y5887800D01*
X4652040Y5906850D01*
X4655260Y5925900D01*
X4660080Y5938600D01*
X4669730Y5951300D01*
X4680990Y5959770D01*
X4692250Y5964000D01*
X4703510D01*
X4714770Y5959770D01*
X4724420Y5953420D01*
X4732460Y5944950D01*
G01X4821750Y5964000D02*
Y5837000D01*
X4802450Y5862400D01*
G01Y5964000D02*
X4841050D01*
G01X4970550D02*
Y5837000D01*
X4911040Y5928020D01*
X4991460D01*
G01X5045370Y5944950D02*
X5055010Y5955540D01*
X5066270Y5961880D01*
X5080750Y5964000D01*
X5095230Y5959770D01*
X5106480Y5951300D01*
X5114530Y5936490D01*
X5116130Y5919550D01*
X5112920Y5902620D01*
X5104870Y5892030D01*
X5093620Y5883570D01*
X5082360Y5881450D01*
X5071100Y5883570D01*
X5056630Y5892030D01*
X5061450Y5837000D01*
X5104870D01*
G01X4635000Y6036000D02*
X4665000D01*
Y5976000D01*
X4635000D01*
Y6036000D01*
G01X4679000Y6581080D02*
X4806000D01*
Y6621290D01*
X4799650Y6634160D01*
X4791180Y6642200D01*
X4774250Y6645420D01*
X4757320Y6642200D01*
X4746730Y6632550D01*
X4740380Y6621290D01*
Y6581080D01*
G01Y6621290D02*
X4679000Y6645420D01*
G01Y6742750D02*
X4681120Y6754010D01*
X4687460Y6766870D01*
X4698050Y6774920D01*
X4712870Y6778130D01*
X4727680Y6774920D01*
X4740380Y6765270D01*
X4746730Y6750790D01*
Y6734710D01*
X4750970Y6725060D01*
X4761550Y6717010D01*
X4776370Y6713800D01*
X4791180Y6718630D01*
X4801770Y6729880D01*
X4806000Y6742750D01*
X4801770Y6755620D01*
X4791180Y6766870D01*
X4776370Y6771700D01*
X4761550Y6768480D01*
X4750970Y6760440D01*
X4746730Y6750790D01*
Y6734710D01*
X4740380Y6720230D01*
X4727680Y6710580D01*
X4712870Y6707370D01*
X4698050Y6710580D01*
X4687460Y6718630D01*
X4681120Y6731490D01*
X4679000Y6742750D01*
G01X4698050Y6836870D02*
X4687460Y6846510D01*
X4681120Y6857770D01*
X4679000Y6872250D01*
X4683230Y6886730D01*
X4691700Y6897980D01*
X4706510Y6906030D01*
X4723450Y6907630D01*
X4740380Y6904420D01*
X4750970Y6896370D01*
X4759430Y6885120D01*
X4761550Y6873860D01*
X4759430Y6862600D01*
X4750970Y6848130D01*
X4806000Y6852950D01*
Y6896370D01*
G01X4931420Y6153630D02*
X4937770Y6143980D01*
X4942000Y6132730D01*
Y6119860D01*
X4935650Y6105380D01*
X4925070Y6094130D01*
X4912370Y6086080D01*
X4891200Y6079650D01*
X4872150Y6078040D01*
X4853100Y6081260D01*
X4840400Y6086080D01*
X4827700Y6095730D01*
X4819230Y6106990D01*
X4815000Y6118250D01*
Y6129510D01*
X4819230Y6140770D01*
X4825580Y6150420D01*
X4834050Y6158460D01*
G01X4815000Y6247750D02*
X4942000D01*
X4916600Y6228450D01*
G01X4815000D02*
Y6267050D01*
G01Y6396550D02*
X4942000D01*
X4850980Y6337040D01*
Y6417460D01*
G01X4840400Y6471370D02*
X4825580Y6481010D01*
X4817120Y6493880D01*
X4815000Y6508360D01*
X4817120Y6521230D01*
X4827700Y6534090D01*
X4840400Y6542130D01*
X4853100Y6543740D01*
X4867910Y6540530D01*
X4878500Y6529270D01*
X4882730Y6518010D01*
Y6503530D01*
G01Y6518010D02*
X4889080Y6527660D01*
X4899660Y6535700D01*
X4912370Y6538920D01*
X4925070Y6535700D01*
X4935650Y6527660D01*
X4942000Y6513180D01*
X4939880Y6498710D01*
X4931420Y6484230D01*
G01X4743000Y6061000D02*
Y6091000D01*
X4803000D01*
Y6061000D01*
X4743000D01*
G01X4925000Y6768550D02*
X4798000D01*
X4823400Y6749250D01*
G01X4925000D02*
Y6787850D01*
G01Y6917390D02*
X4798000D01*
X4889020Y6857870D01*
Y6938310D01*
G01X6545370Y4789420D02*
X6555020Y4795770D01*
X6566270Y4800000D01*
X6579140D01*
X6593620Y4793650D01*
X6604870Y4783070D01*
X6612920Y4770370D01*
X6619350Y4749200D01*
X6620960Y4730150D01*
X6617740Y4711100D01*
X6612920Y4698400D01*
X6603270Y4685700D01*
X6592010Y4677230D01*
X6580750Y4673000D01*
X6569490D01*
X6558230Y4677230D01*
X6548580Y4683580D01*
X6540540Y4692050D01*
G01X6451250Y4673000D02*
X6439990Y4675120D01*
X6427130Y4681460D01*
X6419080Y4692050D01*
X6415870Y4706870D01*
X6419080Y4721680D01*
X6428730Y4734380D01*
X6443210Y4740730D01*
X6459290D01*
X6468940Y4744970D01*
X6476990Y4755550D01*
X6480200Y4770370D01*
X6475370Y4785180D01*
X6464120Y4795770D01*
X6451250Y4800000D01*
X6438380Y4795770D01*
X6427130Y4785180D01*
X6422300Y4770370D01*
X6425520Y4755550D01*
X6433560Y4744970D01*
X6443210Y4740730D01*
X6459290D01*
X6473770Y4734380D01*
X6483420Y4721680D01*
X6486630Y4706870D01*
X6483420Y4692050D01*
X6475370Y4681460D01*
X6462510Y4675120D01*
X6451250Y4673000D01*
G01X6324970D02*
X6321750Y4700510D01*
X6316920Y4723800D01*
X6310490Y4744970D01*
X6302450Y4768250D01*
X6289580Y4800000D01*
X6353920D01*
G01X6385080Y3869000D02*
Y3742000D01*
X6425290D01*
X6438160Y3748350D01*
X6446200Y3756820D01*
X6449420Y3773750D01*
X6446200Y3790680D01*
X6436550Y3801270D01*
X6425290Y3807620D01*
X6385080D01*
G01X6425290D02*
X6449420Y3869000D01*
G01X6519410Y3854190D02*
X6530670Y3864770D01*
X6543530Y3869000D01*
X6556400Y3864770D01*
X6567660Y3852070D01*
X6575700Y3833020D01*
X6578920Y3813970D01*
Y3790680D01*
X6575700Y3771630D01*
X6567660Y3754700D01*
X6558010Y3746230D01*
X6546750Y3742000D01*
X6533880Y3746230D01*
X6524230Y3754700D01*
X6517800Y3767400D01*
X6514580Y3784340D01*
X6517800Y3799150D01*
X6525840Y3813970D01*
X6535490Y3822440D01*
X6546750Y3824550D01*
X6559620Y3820320D01*
X6569270Y3809730D01*
X6578920Y3790680D01*
G01X6640870Y3849950D02*
X6650510Y3860540D01*
X6661770Y3866880D01*
X6676250Y3869000D01*
X6690730Y3864770D01*
X6701980Y3856300D01*
X6710030Y3841490D01*
X6711630Y3824550D01*
X6708420Y3807620D01*
X6700370Y3797030D01*
X6689120Y3788570D01*
X6677860Y3786450D01*
X6666600Y3788570D01*
X6652130Y3797030D01*
X6656950Y3742000D01*
X6700370D01*
G01X6360000Y3941000D02*
X6390000D01*
Y3881000D01*
X6360000D01*
Y3941000D01*
G01X6616370Y4149420D02*
X6626020Y4155770D01*
X6637270Y4160000D01*
X6650140D01*
X6664620Y4153650D01*
X6675870Y4143070D01*
X6683920Y4130370D01*
X6690350Y4109200D01*
X6691960Y4090150D01*
X6688740Y4071100D01*
X6683920Y4058400D01*
X6674270Y4045700D01*
X6663010Y4037230D01*
X6651750Y4033000D01*
X6640490D01*
X6629230Y4037230D01*
X6619580Y4043580D01*
X6611540Y4052050D01*
G01X6525470Y4033000D02*
X6522250Y4060510D01*
X6517420Y4083800D01*
X6510990Y4104970D01*
X6502950Y4128250D01*
X6490080Y4160000D01*
X6554420D01*
G01X6423310Y4085910D02*
X6412050Y4100730D01*
X6402400Y4109200D01*
X6389530Y4113430D01*
X6378270Y4109200D01*
X6370230Y4100730D01*
X6363800Y4088030D01*
X6362190Y4073220D01*
X6363800Y4060510D01*
X6370230Y4047810D01*
X6379880Y4037230D01*
X6391140Y4033000D01*
X6404010Y4037230D01*
X6415270Y4049930D01*
X6421700Y4068980D01*
X6423310Y4090150D01*
X6420090Y4117660D01*
X6415270Y4132490D01*
X6407230Y4147300D01*
X6395970Y4157880D01*
X6384710Y4160000D01*
X6373450Y4155770D01*
X6365410Y4145180D01*
G01X6618370Y4229420D02*
X6628020Y4235770D01*
X6639270Y4240000D01*
X6652140D01*
X6666620Y4233650D01*
X6677870Y4223070D01*
X6685920Y4210370D01*
X6692350Y4189200D01*
X6693960Y4170150D01*
X6690740Y4151100D01*
X6685920Y4138400D01*
X6676270Y4125700D01*
X6665010Y4117230D01*
X6653750Y4113000D01*
X6642490D01*
X6631230Y4117230D01*
X6621580Y4123580D01*
X6613540Y4132050D01*
G01X6554810Y4165910D02*
X6543550Y4180730D01*
X6533900Y4189200D01*
X6521030Y4193430D01*
X6509770Y4189200D01*
X6501730Y4180730D01*
X6495300Y4168030D01*
X6493690Y4153220D01*
X6495300Y4140510D01*
X6501730Y4127810D01*
X6511380Y4117230D01*
X6522640Y4113000D01*
X6535510Y4117230D01*
X6546770Y4129930D01*
X6553200Y4148980D01*
X6554810Y4170150D01*
X6551590Y4197660D01*
X6546770Y4212490D01*
X6538730Y4227300D01*
X6527470Y4237880D01*
X6516210Y4240000D01*
X6504950Y4235770D01*
X6496910Y4225180D01*
G01X6422090Y4127810D02*
X6410830Y4117230D01*
X6397970Y4113000D01*
X6385100Y4117230D01*
X6373840Y4129930D01*
X6365800Y4148980D01*
X6362580Y4168030D01*
Y4191320D01*
X6365800Y4210370D01*
X6373840Y4227300D01*
X6383490Y4235770D01*
X6394750Y4240000D01*
X6407620Y4235770D01*
X6417270Y4227300D01*
X6423700Y4214600D01*
X6426920Y4197660D01*
X6423700Y4182850D01*
X6415660Y4168030D01*
X6406010Y4159560D01*
X6394750Y4157450D01*
X6381880Y4161680D01*
X6372230Y4172270D01*
X6362580Y4191320D01*
G01X6384080Y4271000D02*
Y4144000D01*
X6424290D01*
X6437160Y4150350D01*
X6445200Y4158820D01*
X6448420Y4175750D01*
X6445200Y4192680D01*
X6435550Y4203270D01*
X6424290Y4209620D01*
X6384080D01*
G01X6424290D02*
X6448420Y4271000D01*
G01X6518410Y4256190D02*
X6529670Y4266770D01*
X6542530Y4271000D01*
X6555400Y4266770D01*
X6566660Y4254070D01*
X6574700Y4235020D01*
X6577920Y4215970D01*
Y4192680D01*
X6574700Y4173630D01*
X6566660Y4156700D01*
X6557010Y4148230D01*
X6545750Y4144000D01*
X6532880Y4148230D01*
X6523230Y4156700D01*
X6516800Y4169400D01*
X6513580Y4186340D01*
X6516800Y4201150D01*
X6524840Y4215970D01*
X6534490Y4224440D01*
X6545750Y4226550D01*
X6558620Y4222320D01*
X6568270Y4211730D01*
X6577920Y4192680D01*
G01X6675250Y4271000D02*
Y4144000D01*
X6655950Y4169400D01*
G01Y4271000D02*
X6694550D01*
G01X6619370Y4309420D02*
X6629020Y4315770D01*
X6640270Y4320000D01*
X6653140D01*
X6667620Y4313650D01*
X6678870Y4303070D01*
X6686920Y4290370D01*
X6693350Y4269200D01*
X6694960Y4250150D01*
X6691740Y4231100D01*
X6686920Y4218400D01*
X6677270Y4205700D01*
X6666010Y4197230D01*
X6654750Y4193000D01*
X6643490D01*
X6632230Y4197230D01*
X6622580Y4203580D01*
X6614540Y4212050D01*
G01X6528470Y4193000D02*
X6525250Y4220510D01*
X6520420Y4243800D01*
X6513990Y4264970D01*
X6505950Y4288250D01*
X6493080Y4320000D01*
X6557420D01*
G01X6395750D02*
X6408620Y4315770D01*
X6418270Y4305180D01*
X6424700Y4292490D01*
X6429530Y4275550D01*
X6431130Y4256500D01*
X6429530Y4237450D01*
X6424700Y4220510D01*
X6418270Y4207810D01*
X6408620Y4197230D01*
X6395750Y4193000D01*
X6382880Y4197230D01*
X6373230Y4207810D01*
X6366800Y4220510D01*
X6361970Y4237450D01*
X6360370Y4256500D01*
X6361970Y4275550D01*
X6366800Y4292490D01*
X6373230Y4305180D01*
X6382880Y4315770D01*
X6395750Y4320000D01*
G01X6359000Y4343000D02*
X6389000D01*
Y4283000D01*
X6359000D01*
Y4343000D01*
G01X6621370Y4549420D02*
X6631020Y4555770D01*
X6642270Y4560000D01*
X6655140D01*
X6669620Y4553650D01*
X6680870Y4543070D01*
X6688920Y4530370D01*
X6695350Y4509200D01*
X6696960Y4490150D01*
X6693740Y4471100D01*
X6688920Y4458400D01*
X6679270Y4445700D01*
X6668010Y4437230D01*
X6656750Y4433000D01*
X6645490D01*
X6634230Y4437230D01*
X6624580Y4443580D01*
X6616540Y4452050D01*
G01X6557810Y4485910D02*
X6546550Y4500730D01*
X6536900Y4509200D01*
X6524030Y4513430D01*
X6512770Y4509200D01*
X6504730Y4500730D01*
X6498300Y4488030D01*
X6496690Y4473220D01*
X6498300Y4460510D01*
X6504730Y4447810D01*
X6514380Y4437230D01*
X6525640Y4433000D01*
X6538510Y4437230D01*
X6549770Y4449930D01*
X6556200Y4468980D01*
X6557810Y4490150D01*
X6554590Y4517660D01*
X6549770Y4532490D01*
X6541730Y4547300D01*
X6530470Y4557880D01*
X6519210Y4560000D01*
X6507950Y4555770D01*
X6499910Y4545180D01*
G01X6433130Y4458400D02*
X6423490Y4443580D01*
X6410620Y4435120D01*
X6396140Y4433000D01*
X6383270Y4435120D01*
X6370410Y4445700D01*
X6362370Y4458400D01*
X6360760Y4471100D01*
X6363970Y4485910D01*
X6375230Y4496500D01*
X6386490Y4500730D01*
X6400970D01*
G01X6386490D02*
X6376840Y4507080D01*
X6368800Y4517660D01*
X6365580Y4530370D01*
X6368800Y4543070D01*
X6376840Y4553650D01*
X6391320Y4560000D01*
X6405790Y4557880D01*
X6420270Y4549420D01*
G01X6629370Y4629420D02*
X6639020Y4635770D01*
X6650270Y4640000D01*
X6663140D01*
X6677620Y4633650D01*
X6688870Y4623070D01*
X6696920Y4610370D01*
X6703350Y4589200D01*
X6704960Y4570150D01*
X6701740Y4551100D01*
X6696920Y4538400D01*
X6687270Y4525700D01*
X6676010Y4517230D01*
X6664750Y4513000D01*
X6653490D01*
X6642230Y4517230D01*
X6632580Y4523580D01*
X6624540Y4532050D01*
G01X6565810Y4565910D02*
X6554550Y4580730D01*
X6544900Y4589200D01*
X6532030Y4593430D01*
X6520770Y4589200D01*
X6512730Y4580730D01*
X6506300Y4568030D01*
X6504690Y4553220D01*
X6506300Y4540510D01*
X6512730Y4527810D01*
X6522380Y4517230D01*
X6533640Y4513000D01*
X6546510Y4517230D01*
X6557770Y4529930D01*
X6564200Y4548980D01*
X6565810Y4570150D01*
X6562590Y4597660D01*
X6557770Y4612490D01*
X6549730Y4627300D01*
X6538470Y4637880D01*
X6527210Y4640000D01*
X6515950Y4635770D01*
X6507910Y4625180D01*
G01X6386450Y4513000D02*
Y4640000D01*
X6445960Y4548980D01*
X6365540D01*
G01X6788920Y3874000D02*
Y4001000D01*
X6748710D01*
X6735840Y3994650D01*
X6727800Y3986180D01*
X6724580Y3969250D01*
X6727800Y3952320D01*
X6737450Y3941730D01*
X6748710Y3935380D01*
X6788920D01*
G01X6748710D02*
X6724580Y3874000D01*
G01X6654590Y3888810D02*
X6643330Y3878230D01*
X6630470Y3874000D01*
X6617600Y3878230D01*
X6606340Y3890930D01*
X6598300Y3909980D01*
X6595080Y3929030D01*
Y3952320D01*
X6598300Y3971370D01*
X6606340Y3988300D01*
X6615990Y3996770D01*
X6627250Y4001000D01*
X6640120Y3996770D01*
X6649770Y3988300D01*
X6656200Y3975600D01*
X6659420Y3958660D01*
X6656200Y3943850D01*
X6648160Y3929030D01*
X6638510Y3920560D01*
X6627250Y3918450D01*
X6614380Y3922680D01*
X6604730Y3933270D01*
X6595080Y3952320D01*
G01X6528310Y3926910D02*
X6517050Y3941730D01*
X6507400Y3950200D01*
X6494530Y3954430D01*
X6483270Y3950200D01*
X6475230Y3941730D01*
X6468800Y3929030D01*
X6467190Y3914220D01*
X6468800Y3901510D01*
X6475230Y3888810D01*
X6484880Y3878230D01*
X6496140Y3874000D01*
X6509010Y3878230D01*
X6520270Y3890930D01*
X6526700Y3909980D01*
X6528310Y3931150D01*
X6525090Y3958660D01*
X6520270Y3973490D01*
X6512230Y3988300D01*
X6500970Y3998880D01*
X6489710Y4001000D01*
X6478450Y3996770D01*
X6470410Y3986180D01*
G01X6788370Y4549420D02*
X6798020Y4555770D01*
X6809270Y4560000D01*
X6822140D01*
X6836620Y4553650D01*
X6847870Y4543070D01*
X6855920Y4530370D01*
X6862350Y4509200D01*
X6863960Y4490150D01*
X6860740Y4471100D01*
X6855920Y4458400D01*
X6846270Y4445700D01*
X6835010Y4437230D01*
X6823750Y4433000D01*
X6812490D01*
X6801230Y4437230D01*
X6791580Y4443580D01*
X6783540Y4452050D01*
G01X6674950Y4433000D02*
Y4560000D01*
X6734460Y4468980D01*
X6654040D01*
G01X6600130Y4452050D02*
X6590490Y4441460D01*
X6579230Y4435120D01*
X6564750Y4433000D01*
X6550270Y4437230D01*
X6539020Y4445700D01*
X6530970Y4460510D01*
X6529370Y4477450D01*
X6532580Y4494380D01*
X6540630Y4504970D01*
X6551880Y4513430D01*
X6563140Y4515550D01*
X6574400Y4513430D01*
X6588870Y4504970D01*
X6584050Y4560000D01*
X6540630D01*
G01X6789370Y4629420D02*
X6799020Y4635770D01*
X6810270Y4640000D01*
X6823140D01*
X6837620Y4633650D01*
X6848870Y4623070D01*
X6856920Y4610370D01*
X6863350Y4589200D01*
X6864960Y4570150D01*
X6861740Y4551100D01*
X6856920Y4538400D01*
X6847270Y4525700D01*
X6836010Y4517230D01*
X6824750Y4513000D01*
X6813490D01*
X6802230Y4517230D01*
X6792580Y4523580D01*
X6784540Y4532050D01*
G01X6675950Y4513000D02*
Y4640000D01*
X6735460Y4548980D01*
X6655040D01*
G01X6568970Y4513000D02*
X6565750Y4540510D01*
X6560920Y4563800D01*
X6554490Y4584970D01*
X6546450Y4608250D01*
X6533580Y4640000D01*
X6597920D01*
G01X6857370Y4949420D02*
X6867020Y4955770D01*
X6878270Y4960000D01*
X6891140D01*
X6905620Y4953650D01*
X6916870Y4943070D01*
X6924920Y4930370D01*
X6931350Y4909200D01*
X6932960Y4890150D01*
X6929740Y4871100D01*
X6924920Y4858400D01*
X6915270Y4845700D01*
X6904010Y4837230D01*
X6892750Y4833000D01*
X6881490D01*
X6870230Y4837230D01*
X6860580Y4843580D01*
X6852540Y4852050D01*
G01X6763250Y4833000D02*
X6751990Y4835120D01*
X6739130Y4841460D01*
X6731080Y4852050D01*
X6727870Y4866870D01*
X6731080Y4881680D01*
X6740730Y4894380D01*
X6755210Y4900730D01*
X6771290D01*
X6780940Y4904970D01*
X6788990Y4915550D01*
X6792200Y4930370D01*
X6787370Y4945180D01*
X6776120Y4955770D01*
X6763250Y4960000D01*
X6750380Y4955770D01*
X6739130Y4945180D01*
X6734300Y4930370D01*
X6737520Y4915550D01*
X6745560Y4904970D01*
X6755210Y4900730D01*
X6771290D01*
X6785770Y4894380D01*
X6795420Y4881680D01*
X6798630Y4866870D01*
X6795420Y4852050D01*
X6787370Y4841460D01*
X6774510Y4835120D01*
X6763250Y4833000D01*
G01X6669130Y4852050D02*
X6659490Y4841460D01*
X6648230Y4835120D01*
X6633750Y4833000D01*
X6619270Y4837230D01*
X6608020Y4845700D01*
X6599970Y4860510D01*
X6598370Y4877450D01*
X6601580Y4894380D01*
X6609630Y4904970D01*
X6620880Y4913430D01*
X6632140Y4915550D01*
X6643400Y4913430D01*
X6657870Y4904970D01*
X6653050Y4960000D01*
X6609630D01*
G01X6628580Y4061370D02*
X6622230Y4071020D01*
X6618000Y4082270D01*
Y4095140D01*
X6624350Y4109620D01*
X6634930Y4120870D01*
X6647630Y4128920D01*
X6668800Y4135350D01*
X6687850Y4136960D01*
X6706900Y4133740D01*
X6719600Y4128920D01*
X6732300Y4119270D01*
X6740770Y4108010D01*
X6745000Y4096750D01*
Y4085490D01*
X6740770Y4074230D01*
X6734420Y4064580D01*
X6725950Y4056540D01*
G01Y4002630D02*
X6736540Y3992990D01*
X6742880Y3981730D01*
X6745000Y3967250D01*
X6740770Y3952770D01*
X6732300Y3941520D01*
X6717490Y3933470D01*
X6700550Y3931870D01*
X6683620Y3935080D01*
X6673030Y3943130D01*
X6664570Y3954380D01*
X6662450Y3965640D01*
X6664570Y3976900D01*
X6673030Y3991370D01*
X6618000Y3986550D01*
Y3943130D01*
G01X6745000Y3818450D02*
X6618000D01*
X6709020Y3877960D01*
Y3797540D01*
G01X7034370Y3989420D02*
X7044020Y3995770D01*
X7055270Y4000000D01*
X7068140D01*
X7082620Y3993650D01*
X7093870Y3983070D01*
X7101920Y3970370D01*
X7108350Y3949200D01*
X7109960Y3930150D01*
X7106740Y3911100D01*
X7101920Y3898400D01*
X7092270Y3885700D01*
X7081010Y3877230D01*
X7069750Y3873000D01*
X7058490D01*
X7047230Y3877230D01*
X7037580Y3883580D01*
X7029540Y3892050D01*
G01X6940250Y3873000D02*
Y4000000D01*
X6959550Y3974600D01*
G01Y3873000D02*
X6920950D01*
G01X6810750D02*
Y4000000D01*
X6830050Y3974600D01*
G01Y3873000D02*
X6791450D01*
G01X6711810Y3925910D02*
X6700550Y3940730D01*
X6690900Y3949200D01*
X6678030Y3953430D01*
X6666770Y3949200D01*
X6658730Y3940730D01*
X6652300Y3928030D01*
X6650690Y3913220D01*
X6652300Y3900510D01*
X6658730Y3887810D01*
X6668380Y3877230D01*
X6679640Y3873000D01*
X6692510Y3877230D01*
X6703770Y3889930D01*
X6710200Y3908980D01*
X6711810Y3930150D01*
X6708590Y3957660D01*
X6703770Y3972490D01*
X6695730Y3987300D01*
X6684470Y3997880D01*
X6673210Y4000000D01*
X6661950Y3995770D01*
X6653910Y3985180D01*
G01X6709000Y3961000D02*
X6679000D01*
Y4021000D01*
X6709000D01*
Y3961000D01*
G01X6867370Y4149420D02*
X6877020Y4155770D01*
X6888270Y4160000D01*
X6901140D01*
X6915620Y4153650D01*
X6926870Y4143070D01*
X6934920Y4130370D01*
X6941350Y4109200D01*
X6942960Y4090150D01*
X6939740Y4071100D01*
X6934920Y4058400D01*
X6925270Y4045700D01*
X6914010Y4037230D01*
X6902750Y4033000D01*
X6891490D01*
X6880230Y4037230D01*
X6870580Y4043580D01*
X6862540Y4052050D01*
G01X6803810Y4085910D02*
X6792550Y4100730D01*
X6782900Y4109200D01*
X6770030Y4113430D01*
X6758770Y4109200D01*
X6750730Y4100730D01*
X6744300Y4088030D01*
X6742690Y4073220D01*
X6744300Y4060510D01*
X6750730Y4047810D01*
X6760380Y4037230D01*
X6771640Y4033000D01*
X6784510Y4037230D01*
X6795770Y4049930D01*
X6802200Y4068980D01*
X6803810Y4090150D01*
X6800590Y4117660D01*
X6795770Y4132490D01*
X6787730Y4147300D01*
X6776470Y4157880D01*
X6765210Y4160000D01*
X6753950Y4155770D01*
X6745910Y4145180D01*
G01X6674310Y4085910D02*
X6663050Y4100730D01*
X6653400Y4109200D01*
X6640530Y4113430D01*
X6629270Y4109200D01*
X6621230Y4100730D01*
X6614800Y4088030D01*
X6613190Y4073220D01*
X6614800Y4060510D01*
X6621230Y4047810D01*
X6630880Y4037230D01*
X6642140Y4033000D01*
X6655010Y4037230D01*
X6666270Y4049930D01*
X6672700Y4068980D01*
X6674310Y4090150D01*
X6671090Y4117660D01*
X6666270Y4132490D01*
X6658230Y4147300D01*
X6646970Y4157880D01*
X6635710Y4160000D01*
X6624450Y4155770D01*
X6616410Y4145180D01*
G01X6711000Y4041000D02*
X6681000D01*
Y4101000D01*
X6711000D01*
Y4041000D01*
G01X6943370Y4229420D02*
X6953020Y4235770D01*
X6964270Y4240000D01*
X6977140D01*
X6991620Y4233650D01*
X7002870Y4223070D01*
X7010920Y4210370D01*
X7017350Y4189200D01*
X7018960Y4170150D01*
X7015740Y4151100D01*
X7010920Y4138400D01*
X7001270Y4125700D01*
X6990010Y4117230D01*
X6978750Y4113000D01*
X6967490D01*
X6956230Y4117230D01*
X6946580Y4123580D01*
X6938540Y4132050D01*
G01X6879810Y4165910D02*
X6868550Y4180730D01*
X6858900Y4189200D01*
X6846030Y4193430D01*
X6834770Y4189200D01*
X6826730Y4180730D01*
X6820300Y4168030D01*
X6818690Y4153220D01*
X6820300Y4140510D01*
X6826730Y4127810D01*
X6836380Y4117230D01*
X6847640Y4113000D01*
X6860510Y4117230D01*
X6871770Y4129930D01*
X6878200Y4148980D01*
X6879810Y4170150D01*
X6876590Y4197660D01*
X6871770Y4212490D01*
X6863730Y4227300D01*
X6852470Y4237880D01*
X6841210Y4240000D01*
X6829950Y4235770D01*
X6821910Y4225180D01*
G01X6755130Y4132050D02*
X6745490Y4121460D01*
X6734230Y4115120D01*
X6719750Y4113000D01*
X6705270Y4117230D01*
X6694020Y4125700D01*
X6685970Y4140510D01*
X6684370Y4157450D01*
X6687580Y4174380D01*
X6695630Y4184970D01*
X6706880Y4193430D01*
X6718140Y4195550D01*
X6729400Y4193430D01*
X6743870Y4184970D01*
X6739050Y4240000D01*
X6695630D01*
G01X6630580Y4369370D02*
X6624230Y4379020D01*
X6620000Y4390270D01*
Y4403140D01*
X6626350Y4417620D01*
X6636930Y4428870D01*
X6649630Y4436920D01*
X6670800Y4443350D01*
X6689850Y4444960D01*
X6708900Y4441740D01*
X6721600Y4436920D01*
X6734300Y4427270D01*
X6742770Y4416010D01*
X6747000Y4404750D01*
Y4393490D01*
X6742770Y4382230D01*
X6736420Y4372580D01*
X6727950Y4364540D01*
G01X6747000Y4278470D02*
X6719490Y4275250D01*
X6696200Y4270420D01*
X6675030Y4263990D01*
X6651750Y4255950D01*
X6620000Y4243080D01*
Y4307420D01*
G01X6747000Y4145750D02*
X6744880Y4134490D01*
X6738540Y4121630D01*
X6727950Y4113580D01*
X6713130Y4110370D01*
X6698320Y4113580D01*
X6685620Y4123230D01*
X6679270Y4137710D01*
Y4153790D01*
X6675030Y4163440D01*
X6664450Y4171490D01*
X6649630Y4174700D01*
X6634820Y4169870D01*
X6624230Y4158620D01*
X6620000Y4145750D01*
X6624230Y4132880D01*
X6634820Y4121630D01*
X6649630Y4116800D01*
X6664450Y4120020D01*
X6675030Y4128060D01*
X6679270Y4137710D01*
Y4153790D01*
X6685620Y4168270D01*
X6698320Y4177920D01*
X6713130Y4181130D01*
X6727950Y4177920D01*
X6738540Y4169870D01*
X6744880Y4157010D01*
X6747000Y4145750D01*
G01X6712000Y4121000D02*
X6682000D01*
Y4181000D01*
X6712000D01*
Y4121000D01*
G01X6680000Y4261000D02*
X6710000D01*
Y4201000D01*
X6680000D01*
Y4261000D01*
G01X6949370Y4389420D02*
X6959020Y4395770D01*
X6970270Y4400000D01*
X6983140D01*
X6997620Y4393650D01*
X7008870Y4383070D01*
X7016920Y4370370D01*
X7023350Y4349200D01*
X7024960Y4330150D01*
X7021740Y4311100D01*
X7016920Y4298400D01*
X7007270Y4285700D01*
X6996010Y4277230D01*
X6984750Y4273000D01*
X6973490D01*
X6962230Y4277230D01*
X6952580Y4283580D01*
X6944540Y4292050D01*
G01X6835950Y4273000D02*
Y4400000D01*
X6895460Y4308980D01*
X6815040D01*
G01X6761130Y4298400D02*
X6751490Y4283580D01*
X6738620Y4275120D01*
X6724140Y4273000D01*
X6711270Y4275120D01*
X6698410Y4285700D01*
X6690370Y4298400D01*
X6688760Y4311100D01*
X6691970Y4325910D01*
X6703230Y4336500D01*
X6714490Y4340730D01*
X6728970D01*
G01X6714490D02*
X6704840Y4347080D01*
X6696800Y4357660D01*
X6693580Y4370370D01*
X6696800Y4383070D01*
X6704840Y4393650D01*
X6719320Y4400000D01*
X6733790Y4397880D01*
X6748270Y4389420D01*
G01X6714000Y4361000D02*
X6684000D01*
Y4421000D01*
X6714000D01*
Y4361000D01*
G01X6785420Y4388630D02*
X6791770Y4378980D01*
X6796000Y4367730D01*
Y4354860D01*
X6789650Y4340380D01*
X6779070Y4329130D01*
X6766370Y4321080D01*
X6745200Y4314650D01*
X6726150Y4313040D01*
X6707100Y4316260D01*
X6694400Y4321080D01*
X6681700Y4330730D01*
X6673230Y4341990D01*
X6669000Y4353250D01*
Y4364510D01*
X6673230Y4375770D01*
X6679580Y4385420D01*
X6688050Y4393460D01*
G01X6721910Y4452190D02*
X6736730Y4463450D01*
X6745200Y4473100D01*
X6749430Y4485970D01*
X6745200Y4497230D01*
X6736730Y4505270D01*
X6724030Y4511700D01*
X6709220Y4513310D01*
X6696510Y4511700D01*
X6683810Y4505270D01*
X6673230Y4495620D01*
X6669000Y4484360D01*
X6673230Y4471490D01*
X6685930Y4460230D01*
X6704980Y4453800D01*
X6726150Y4452190D01*
X6753660Y4455410D01*
X6768490Y4460230D01*
X6783300Y4468270D01*
X6793880Y4479530D01*
X6796000Y4490790D01*
X6791770Y4502050D01*
X6781180Y4510090D01*
G01X6774830Y4581690D02*
X6787530Y4591340D01*
X6793880Y4602600D01*
X6796000Y4615470D01*
X6791770Y4631550D01*
X6781180Y4642810D01*
X6768490Y4646030D01*
X6755780Y4644420D01*
X6745200Y4637980D01*
X6724030Y4605820D01*
X6709220Y4591340D01*
X6688050Y4581690D01*
X6669000Y4578470D01*
Y4646030D01*
G01X6597000Y4296000D02*
Y4326000D01*
X6657000D01*
Y4296000D01*
X6597000D01*
G01X6869370Y4469420D02*
X6879020Y4475770D01*
X6890270Y4480000D01*
X6903140D01*
X6917620Y4473650D01*
X6928870Y4463070D01*
X6936920Y4450370D01*
X6943350Y4429200D01*
X6944960Y4410150D01*
X6941740Y4391100D01*
X6936920Y4378400D01*
X6927270Y4365700D01*
X6916010Y4357230D01*
X6904750Y4353000D01*
X6893490D01*
X6882230Y4357230D01*
X6872580Y4363580D01*
X6864540Y4372050D01*
G01X6755950Y4353000D02*
Y4480000D01*
X6815460Y4388980D01*
X6735040D01*
G01X6626450Y4353000D02*
Y4480000D01*
X6685960Y4388980D01*
X6605540D01*
G01X6638000Y4601000D02*
X6608000D01*
Y4661000D01*
X6638000D01*
Y4601000D01*
G01X6677000Y4700000D02*
Y4730000D01*
X6737000D01*
Y4700000D01*
X6677000D01*
G01X6708580Y4061370D02*
X6702230Y4071020D01*
X6698000Y4082270D01*
Y4095140D01*
X6704350Y4109620D01*
X6714930Y4120870D01*
X6727630Y4128920D01*
X6748800Y4135350D01*
X6767850Y4136960D01*
X6786900Y4133740D01*
X6799600Y4128920D01*
X6812300Y4119270D01*
X6820770Y4108010D01*
X6825000Y4096750D01*
Y4085490D01*
X6820770Y4074230D01*
X6814420Y4064580D01*
X6805950Y4056540D01*
G01Y4002630D02*
X6816540Y3992990D01*
X6822880Y3981730D01*
X6825000Y3967250D01*
X6820770Y3952770D01*
X6812300Y3941520D01*
X6797490Y3933470D01*
X6780550Y3931870D01*
X6763620Y3935080D01*
X6753030Y3943130D01*
X6744570Y3954380D01*
X6742450Y3965640D01*
X6744570Y3976900D01*
X6753030Y3991370D01*
X6698000Y3986550D01*
Y3943130D01*
G01X6799600Y3873130D02*
X6814420Y3863490D01*
X6822880Y3850620D01*
X6825000Y3836140D01*
X6822880Y3823270D01*
X6812300Y3810410D01*
X6799600Y3802370D01*
X6786900Y3800760D01*
X6772090Y3803970D01*
X6761500Y3815230D01*
X6757270Y3826490D01*
Y3840970D01*
G01Y3826490D02*
X6750920Y3816840D01*
X6740340Y3808800D01*
X6727630Y3805580D01*
X6714930Y3808800D01*
X6704350Y3816840D01*
X6698000Y3831320D01*
X6700120Y3845790D01*
X6708580Y3860270D01*
G01X6788580Y4062370D02*
X6782230Y4072020D01*
X6778000Y4083270D01*
Y4096140D01*
X6784350Y4110620D01*
X6794930Y4121870D01*
X6807630Y4129920D01*
X6828800Y4136350D01*
X6847850Y4137960D01*
X6866900Y4134740D01*
X6879600Y4129920D01*
X6892300Y4120270D01*
X6900770Y4109010D01*
X6905000Y4097750D01*
Y4086490D01*
X6900770Y4075230D01*
X6894420Y4065580D01*
X6885950Y4057540D01*
G01Y4003630D02*
X6896540Y3993990D01*
X6902880Y3982730D01*
X6905000Y3968250D01*
X6900770Y3953770D01*
X6892300Y3942520D01*
X6877490Y3934470D01*
X6860550Y3932870D01*
X6843620Y3936080D01*
X6833030Y3944130D01*
X6824570Y3955380D01*
X6822450Y3966640D01*
X6824570Y3977900D01*
X6833030Y3992370D01*
X6778000Y3987550D01*
Y3944130D01*
G01X6799170Y3869310D02*
X6786470Y3859660D01*
X6780120Y3848400D01*
X6778000Y3835530D01*
X6782230Y3819450D01*
X6792820Y3808190D01*
X6805510Y3804970D01*
X6818220Y3806580D01*
X6828800Y3813020D01*
X6849970Y3845180D01*
X6864780Y3859660D01*
X6885950Y3869310D01*
X6905000Y3872530D01*
Y3804970D01*
G01X7020370Y4148420D02*
X7030020Y4154770D01*
X7041270Y4159000D01*
X7054140D01*
X7068620Y4152650D01*
X7079870Y4142070D01*
X7087920Y4129370D01*
X7094350Y4108200D01*
X7095960Y4089150D01*
X7092740Y4070100D01*
X7087920Y4057400D01*
X7078270Y4044700D01*
X7067010Y4036230D01*
X7055750Y4032000D01*
X7044490D01*
X7033230Y4036230D01*
X7023580Y4042580D01*
X7015540Y4051050D01*
G01X6926250Y4032000D02*
X6914990Y4034120D01*
X6902130Y4040460D01*
X6894080Y4051050D01*
X6890870Y4065870D01*
X6894080Y4080680D01*
X6903730Y4093380D01*
X6918210Y4099730D01*
X6934290D01*
X6943940Y4103970D01*
X6951990Y4114550D01*
X6955200Y4129370D01*
X6950370Y4144180D01*
X6939120Y4154770D01*
X6926250Y4159000D01*
X6913380Y4154770D01*
X6902130Y4144180D01*
X6897300Y4129370D01*
X6900520Y4114550D01*
X6908560Y4103970D01*
X6918210Y4099730D01*
X6934290D01*
X6948770Y4093380D01*
X6958420Y4080680D01*
X6961630Y4065870D01*
X6958420Y4051050D01*
X6950370Y4040460D01*
X6937510Y4034120D01*
X6926250Y4032000D01*
G01X6796750D02*
X6785490Y4034120D01*
X6772630Y4040460D01*
X6764580Y4051050D01*
X6761370Y4065870D01*
X6764580Y4080680D01*
X6774230Y4093380D01*
X6788710Y4099730D01*
X6804790D01*
X6814440Y4103970D01*
X6822490Y4114550D01*
X6825700Y4129370D01*
X6820870Y4144180D01*
X6809620Y4154770D01*
X6796750Y4159000D01*
X6783880Y4154770D01*
X6772630Y4144180D01*
X6767800Y4129370D01*
X6771020Y4114550D01*
X6779060Y4103970D01*
X6788710Y4099730D01*
X6804790D01*
X6819270Y4093380D01*
X6828920Y4080680D01*
X6832130Y4065870D01*
X6828920Y4051050D01*
X6820870Y4040460D01*
X6808010Y4034120D01*
X6796750Y4032000D01*
G01X6755000Y3964000D02*
Y3994000D01*
X6815000D01*
Y3964000D01*
X6755000D01*
G01X6772630Y4072580D02*
X6762980Y4066230D01*
X6751730Y4062000D01*
X6738860D01*
X6724380Y4068350D01*
X6713130Y4078930D01*
X6705080Y4091630D01*
X6698650Y4112800D01*
X6697040Y4131850D01*
X6700260Y4150900D01*
X6705080Y4163600D01*
X6714730Y4176300D01*
X6725990Y4184770D01*
X6737250Y4189000D01*
X6748510D01*
X6759770Y4184770D01*
X6769420Y4178420D01*
X6777460Y4169950D01*
G01X6836190Y4136090D02*
X6847450Y4121270D01*
X6857100Y4112800D01*
X6869970Y4108570D01*
X6881230Y4112800D01*
X6889270Y4121270D01*
X6895700Y4133970D01*
X6897310Y4148780D01*
X6895700Y4161490D01*
X6889270Y4174190D01*
X6879620Y4184770D01*
X6868360Y4189000D01*
X6855490Y4184770D01*
X6844230Y4172070D01*
X6837800Y4153020D01*
X6836190Y4131850D01*
X6839410Y4104340D01*
X6844230Y4089510D01*
X6852270Y4074700D01*
X6863530Y4064120D01*
X6874790Y4062000D01*
X6886050Y4066230D01*
X6894090Y4076820D01*
G01X6996250Y4189000D02*
Y4062000D01*
X6976950Y4087400D01*
G01Y4189000D02*
X7015550D01*
G01X6817000Y4154000D02*
Y4124000D01*
X6757000D01*
Y4154000D01*
X6817000D01*
G01X6708580Y4638370D02*
X6702230Y4648020D01*
X6698000Y4659270D01*
Y4672140D01*
X6704350Y4686620D01*
X6714930Y4697870D01*
X6727630Y4705920D01*
X6748800Y4712350D01*
X6767850Y4713960D01*
X6786900Y4710740D01*
X6799600Y4705920D01*
X6812300Y4696270D01*
X6820770Y4685010D01*
X6825000Y4673750D01*
Y4662490D01*
X6820770Y4651230D01*
X6814420Y4641580D01*
X6805950Y4633540D01*
G01Y4579630D02*
X6816540Y4569990D01*
X6822880Y4558730D01*
X6825000Y4544250D01*
X6820770Y4529770D01*
X6812300Y4518520D01*
X6797490Y4510470D01*
X6780550Y4508870D01*
X6763620Y4512080D01*
X6753030Y4520130D01*
X6744570Y4531380D01*
X6742450Y4542640D01*
X6744570Y4553900D01*
X6753030Y4568370D01*
X6698000Y4563550D01*
Y4520130D01*
G01X6825000Y4414750D02*
X6822880Y4403490D01*
X6816540Y4390630D01*
X6805950Y4382580D01*
X6791130Y4379370D01*
X6776320Y4382580D01*
X6763620Y4392230D01*
X6757270Y4406710D01*
Y4422790D01*
X6753030Y4432440D01*
X6742450Y4440490D01*
X6727630Y4443700D01*
X6712820Y4438870D01*
X6702230Y4427620D01*
X6698000Y4414750D01*
X6702230Y4401880D01*
X6712820Y4390630D01*
X6727630Y4385800D01*
X6742450Y4389020D01*
X6753030Y4397060D01*
X6757270Y4406710D01*
Y4422790D01*
X6763620Y4437270D01*
X6776320Y4446920D01*
X6791130Y4450130D01*
X6805950Y4446920D01*
X6816540Y4438870D01*
X6822880Y4426010D01*
X6825000Y4414750D01*
G01X6819000Y4462000D02*
Y4432000D01*
X6759000D01*
Y4462000D01*
X6819000D01*
G01X6722000Y4441000D02*
X6692000D01*
Y4501000D01*
X6722000D01*
Y4441000D01*
G01X6865420Y4792630D02*
X6871770Y4782980D01*
X6876000Y4771730D01*
Y4758860D01*
X6869650Y4744380D01*
X6859070Y4733130D01*
X6846370Y4725080D01*
X6825200Y4718650D01*
X6806150Y4717040D01*
X6787100Y4720260D01*
X6774400Y4725080D01*
X6761700Y4734730D01*
X6753230Y4745990D01*
X6749000Y4757250D01*
Y4768510D01*
X6753230Y4779770D01*
X6759580Y4789420D01*
X6768050Y4797460D01*
G01X6801910Y4856190D02*
X6816730Y4867450D01*
X6825200Y4877100D01*
X6829430Y4889970D01*
X6825200Y4901230D01*
X6816730Y4909270D01*
X6804030Y4915700D01*
X6789220Y4917310D01*
X6776510Y4915700D01*
X6763810Y4909270D01*
X6753230Y4899620D01*
X6749000Y4888360D01*
X6753230Y4875490D01*
X6765930Y4864230D01*
X6784980Y4857800D01*
X6806150Y4856190D01*
X6833660Y4859410D01*
X6848490Y4864230D01*
X6863300Y4872270D01*
X6873880Y4883530D01*
X6876000Y4894790D01*
X6871770Y4906050D01*
X6861180Y4914090D01*
G01X6876000Y5016250D02*
X6871770Y5003380D01*
X6861180Y4993730D01*
X6848490Y4987300D01*
X6831550Y4982470D01*
X6812500Y4980870D01*
X6793450Y4982470D01*
X6776510Y4987300D01*
X6763810Y4993730D01*
X6753230Y5003380D01*
X6749000Y5016250D01*
X6753230Y5029120D01*
X6763810Y5038770D01*
X6776510Y5045200D01*
X6793450Y5050030D01*
X6812500Y5051630D01*
X6831550Y5050030D01*
X6848490Y5045200D01*
X6861180Y5038770D01*
X6871770Y5029120D01*
X6876000Y5016250D01*
G01X6757000Y4699000D02*
Y4729000D01*
X6817000D01*
Y4699000D01*
X6757000D01*
G01X6814000Y3802000D02*
X6784000D01*
Y3862000D01*
X6814000D01*
Y3802000D01*
G01X6943420Y4056630D02*
X6949770Y4046980D01*
X6954000Y4035730D01*
Y4022860D01*
X6947650Y4008380D01*
X6937070Y3997130D01*
X6924370Y3989080D01*
X6903200Y3982650D01*
X6884150Y3981040D01*
X6865100Y3984260D01*
X6852400Y3989080D01*
X6839700Y3998730D01*
X6831230Y4009990D01*
X6827000Y4021250D01*
Y4032510D01*
X6831230Y4043770D01*
X6837580Y4053420D01*
X6846050Y4061460D01*
G01X6879910Y4120190D02*
X6894730Y4131450D01*
X6903200Y4141100D01*
X6907430Y4153970D01*
X6903200Y4165230D01*
X6894730Y4173270D01*
X6882030Y4179700D01*
X6867220Y4181310D01*
X6854510Y4179700D01*
X6841810Y4173270D01*
X6831230Y4163620D01*
X6827000Y4152360D01*
X6831230Y4139490D01*
X6843930Y4128230D01*
X6862980Y4121800D01*
X6884150Y4120190D01*
X6911660Y4123410D01*
X6926490Y4128230D01*
X6941300Y4136270D01*
X6951880Y4147530D01*
X6954000Y4158790D01*
X6949770Y4170050D01*
X6939180Y4178090D01*
G01X6827000Y4280250D02*
X6829120Y4291510D01*
X6835460Y4304370D01*
X6846050Y4312420D01*
X6860870Y4315630D01*
X6875680Y4312420D01*
X6888380Y4302770D01*
X6894730Y4288290D01*
Y4272210D01*
X6898970Y4262560D01*
X6909550Y4254510D01*
X6924370Y4251300D01*
X6939180Y4256130D01*
X6949770Y4267380D01*
X6954000Y4280250D01*
X6949770Y4293120D01*
X6939180Y4304370D01*
X6924370Y4309200D01*
X6909550Y4305980D01*
X6898970Y4297940D01*
X6894730Y4288290D01*
Y4272210D01*
X6888380Y4257730D01*
X6875680Y4248080D01*
X6860870Y4244870D01*
X6846050Y4248080D01*
X6835460Y4256130D01*
X6829120Y4268990D01*
X6827000Y4280250D01*
G01X7025420Y4048630D02*
X7031770Y4038980D01*
X7036000Y4027730D01*
Y4014860D01*
X7029650Y4000380D01*
X7019070Y3989130D01*
X7006370Y3981080D01*
X6985200Y3974650D01*
X6966150Y3973040D01*
X6947100Y3976260D01*
X6934400Y3981080D01*
X6921700Y3990730D01*
X6913230Y4001990D01*
X6909000Y4013250D01*
Y4024510D01*
X6913230Y4035770D01*
X6919580Y4045420D01*
X6928050Y4053460D01*
G01X6961910Y4112190D02*
X6976730Y4123450D01*
X6985200Y4133100D01*
X6989430Y4145970D01*
X6985200Y4157230D01*
X6976730Y4165270D01*
X6964030Y4171700D01*
X6949220Y4173310D01*
X6936510Y4171700D01*
X6923810Y4165270D01*
X6913230Y4155620D01*
X6909000Y4144360D01*
X6913230Y4131490D01*
X6925930Y4120230D01*
X6944980Y4113800D01*
X6966150Y4112190D01*
X6993660Y4115410D01*
X7008490Y4120230D01*
X7023300Y4128270D01*
X7033880Y4139530D01*
X7036000Y4150790D01*
X7031770Y4162050D01*
X7021180Y4170090D01*
G01X6909000Y4269030D02*
X6936510Y4272250D01*
X6959800Y4277080D01*
X6980970Y4283510D01*
X7004250Y4291550D01*
X7036000Y4304420D01*
Y4240080D01*
G01X6837000Y3956000D02*
Y3986000D01*
X6897000D01*
Y3956000D01*
X6837000D01*
G01X6897000Y4154000D02*
Y4124000D01*
X6837000D01*
Y4154000D01*
X6897000D01*
G01X6881000Y4361000D02*
X6851000D01*
Y4421000D01*
X6881000D01*
Y4361000D01*
G01X6882000Y4441000D02*
X6852000D01*
Y4501000D01*
X6882000D01*
Y4441000D01*
G01X7106370Y4550420D02*
X7116020Y4556770D01*
X7127270Y4561000D01*
X7140140D01*
X7154620Y4554650D01*
X7165870Y4544070D01*
X7173920Y4531370D01*
X7180350Y4510200D01*
X7181960Y4491150D01*
X7178740Y4472100D01*
X7173920Y4459400D01*
X7164270Y4446700D01*
X7153010Y4438230D01*
X7141750Y4434000D01*
X7130490D01*
X7119230Y4438230D01*
X7109580Y4444580D01*
X7101540Y4453050D01*
G01X6992950Y4434000D02*
Y4561000D01*
X7052460Y4469980D01*
X6972040D01*
G01X6913310Y4486910D02*
X6902050Y4501730D01*
X6892400Y4510200D01*
X6879530Y4514430D01*
X6868270Y4510200D01*
X6860230Y4501730D01*
X6853800Y4489030D01*
X6852190Y4474220D01*
X6853800Y4461510D01*
X6860230Y4448810D01*
X6869880Y4438230D01*
X6881140Y4434000D01*
X6894010Y4438230D01*
X6905270Y4450930D01*
X6911700Y4469980D01*
X6913310Y4491150D01*
X6910090Y4518660D01*
X6905270Y4533490D01*
X6897230Y4548300D01*
X6885970Y4558880D01*
X6874710Y4561000D01*
X6863450Y4556770D01*
X6855410Y4546180D01*
G01X7096370Y4789420D02*
X7106020Y4795770D01*
X7117270Y4800000D01*
X7130140D01*
X7144620Y4793650D01*
X7155870Y4783070D01*
X7163920Y4770370D01*
X7170350Y4749200D01*
X7171960Y4730150D01*
X7168740Y4711100D01*
X7163920Y4698400D01*
X7154270Y4685700D01*
X7143010Y4677230D01*
X7131750Y4673000D01*
X7120490D01*
X7109230Y4677230D01*
X7099580Y4683580D01*
X7091540Y4692050D01*
G01X7037630Y4698400D02*
X7027990Y4683580D01*
X7015120Y4675120D01*
X7000640Y4673000D01*
X6987770Y4675120D01*
X6974910Y4685700D01*
X6966870Y4698400D01*
X6965260Y4711100D01*
X6968470Y4725910D01*
X6979730Y4736500D01*
X6990990Y4740730D01*
X7005470D01*
G01X6990990D02*
X6981340Y4747080D01*
X6973300Y4757660D01*
X6970080Y4770370D01*
X6973300Y4783070D01*
X6981340Y4793650D01*
X6995820Y4800000D01*
X7010290Y4797880D01*
X7024770Y4789420D01*
G01X6903310Y4725910D02*
X6892050Y4740730D01*
X6882400Y4749200D01*
X6869530Y4753430D01*
X6858270Y4749200D01*
X6850230Y4740730D01*
X6843800Y4728030D01*
X6842190Y4713220D01*
X6843800Y4700510D01*
X6850230Y4687810D01*
X6859880Y4677230D01*
X6871140Y4673000D01*
X6884010Y4677230D01*
X6895270Y4689930D01*
X6901700Y4708980D01*
X6903310Y4730150D01*
X6900090Y4757660D01*
X6895270Y4772490D01*
X6887230Y4787300D01*
X6875970Y4797880D01*
X6864710Y4800000D01*
X6853450Y4795770D01*
X6845410Y4785180D01*
G01X6945420Y4791630D02*
X6951770Y4781980D01*
X6956000Y4770730D01*
Y4757860D01*
X6949650Y4743380D01*
X6939070Y4732130D01*
X6926370Y4724080D01*
X6905200Y4717650D01*
X6886150Y4716040D01*
X6867100Y4719260D01*
X6854400Y4724080D01*
X6841700Y4733730D01*
X6833230Y4744990D01*
X6829000Y4756250D01*
Y4767510D01*
X6833230Y4778770D01*
X6839580Y4788420D01*
X6848050Y4796460D01*
G01Y4850370D02*
X6837460Y4860010D01*
X6831120Y4871270D01*
X6829000Y4885750D01*
X6833230Y4900230D01*
X6841700Y4911480D01*
X6856510Y4919530D01*
X6873450Y4921130D01*
X6890380Y4917920D01*
X6900970Y4909870D01*
X6909430Y4898620D01*
X6911550Y4887360D01*
X6909430Y4876100D01*
X6900970Y4861630D01*
X6956000Y4866450D01*
Y4909870D01*
G01X6843810Y4987910D02*
X6833230Y4999170D01*
X6829000Y5012030D01*
X6833230Y5024900D01*
X6845930Y5036160D01*
X6864980Y5044200D01*
X6884030Y5047420D01*
X6907320D01*
X6926370Y5044200D01*
X6943300Y5036160D01*
X6951770Y5026510D01*
X6956000Y5015250D01*
X6951770Y5002380D01*
X6943300Y4992730D01*
X6930600Y4986300D01*
X6913660Y4983080D01*
X6898850Y4986300D01*
X6884030Y4994340D01*
X6875560Y5003990D01*
X6873450Y5015250D01*
X6877680Y5028120D01*
X6888270Y5037770D01*
X6907320Y5047420D01*
G01X6897000Y4731000D02*
Y4701000D01*
X6837000D01*
Y4731000D01*
X6897000D01*
G01X7100370Y4869420D02*
X7110020Y4875770D01*
X7121270Y4880000D01*
X7134140D01*
X7148620Y4873650D01*
X7159870Y4863070D01*
X7167920Y4850370D01*
X7174350Y4829200D01*
X7175960Y4810150D01*
X7172740Y4791100D01*
X7167920Y4778400D01*
X7158270Y4765700D01*
X7147010Y4757230D01*
X7135750Y4753000D01*
X7124490D01*
X7113230Y4757230D01*
X7103580Y4763580D01*
X7095540Y4772050D01*
G01X7041630Y4778400D02*
X7031990Y4763580D01*
X7019120Y4755120D01*
X7004640Y4753000D01*
X6991770Y4755120D01*
X6978910Y4765700D01*
X6970870Y4778400D01*
X6969260Y4791100D01*
X6972470Y4805910D01*
X6983730Y4816500D01*
X6994990Y4820730D01*
X7009470D01*
G01X6994990D02*
X6985340Y4827080D01*
X6977300Y4837660D01*
X6974080Y4850370D01*
X6977300Y4863070D01*
X6985340Y4873650D01*
X6999820Y4880000D01*
X7014290Y4877880D01*
X7028770Y4869420D01*
G01X6879970Y4753000D02*
X6876750Y4780510D01*
X6871920Y4803800D01*
X6865490Y4824970D01*
X6857450Y4848250D01*
X6844580Y4880000D01*
X6908920D01*
G01X7103370Y4949420D02*
X7113020Y4955770D01*
X7124270Y4960000D01*
X7137140D01*
X7151620Y4953650D01*
X7162870Y4943070D01*
X7170920Y4930370D01*
X7177350Y4909200D01*
X7178960Y4890150D01*
X7175740Y4871100D01*
X7170920Y4858400D01*
X7161270Y4845700D01*
X7150010Y4837230D01*
X7138750Y4833000D01*
X7127490D01*
X7116230Y4837230D01*
X7106580Y4843580D01*
X7098540Y4852050D01*
G01X7012470Y4833000D02*
X7009250Y4860510D01*
X7004420Y4883800D01*
X6997990Y4904970D01*
X6989950Y4928250D01*
X6977080Y4960000D01*
X7041420D01*
G01X6915130Y4858400D02*
X6905490Y4843580D01*
X6892620Y4835120D01*
X6878140Y4833000D01*
X6865270Y4835120D01*
X6852410Y4845700D01*
X6844370Y4858400D01*
X6842760Y4871100D01*
X6845970Y4885910D01*
X6857230Y4896500D01*
X6868490Y4900730D01*
X6882970D01*
G01X6868490D02*
X6858840Y4907080D01*
X6850800Y4917660D01*
X6847580Y4930370D01*
X6850800Y4943070D01*
X6858840Y4953650D01*
X6873320Y4960000D01*
X6887790Y4957880D01*
X6902270Y4949420D01*
G01X6976080Y3869000D02*
Y3742000D01*
X7016290D01*
X7029160Y3748350D01*
X7037200Y3756820D01*
X7040420Y3773750D01*
X7037200Y3790680D01*
X7027550Y3801270D01*
X7016290Y3807620D01*
X6976080D01*
G01X7016290D02*
X7040420Y3869000D01*
G01X7137750D02*
X7149010Y3866880D01*
X7161870Y3860540D01*
X7169920Y3849950D01*
X7173130Y3835130D01*
X7169920Y3820320D01*
X7160270Y3807620D01*
X7145790Y3801270D01*
X7129710D01*
X7120060Y3797030D01*
X7112010Y3786450D01*
X7108800Y3771630D01*
X7113630Y3756820D01*
X7124880Y3746230D01*
X7137750Y3742000D01*
X7150620Y3746230D01*
X7161870Y3756820D01*
X7166700Y3771630D01*
X7163480Y3786450D01*
X7155440Y3797030D01*
X7145790Y3801270D01*
X7129710D01*
X7115230Y3807620D01*
X7105580Y3820320D01*
X7102370Y3835130D01*
X7105580Y3849950D01*
X7113630Y3860540D01*
X7126490Y3866880D01*
X7137750Y3869000D01*
G01X7239910Y3854190D02*
X7251170Y3864770D01*
X7264030Y3869000D01*
X7276900Y3864770D01*
X7288160Y3852070D01*
X7296200Y3833020D01*
X7299420Y3813970D01*
Y3790680D01*
X7296200Y3771630D01*
X7288160Y3754700D01*
X7278510Y3746230D01*
X7267250Y3742000D01*
X7254380Y3746230D01*
X7244730Y3754700D01*
X7238300Y3767400D01*
X7235080Y3784340D01*
X7238300Y3799150D01*
X7246340Y3813970D01*
X7255990Y3822440D01*
X7267250Y3824550D01*
X7280120Y3820320D01*
X7289770Y3809730D01*
X7299420Y3790680D01*
G01X6951000Y3941000D02*
X6981000D01*
Y3881000D01*
X6951000D01*
Y3941000D01*
G01X6960000Y3961000D02*
X6930000D01*
Y4021000D01*
X6960000D01*
Y3961000D01*
G01X6977000Y4155000D02*
Y4125000D01*
X6917000D01*
Y4155000D01*
X6977000D01*
G01X6948580Y4473370D02*
X6942230Y4483020D01*
X6938000Y4494270D01*
Y4507140D01*
X6944350Y4521620D01*
X6954930Y4532870D01*
X6967630Y4540920D01*
X6988800Y4547350D01*
X7007850Y4548960D01*
X7026900Y4545740D01*
X7039600Y4540920D01*
X7052300Y4531270D01*
X7060770Y4520010D01*
X7065000Y4508750D01*
Y4497490D01*
X7060770Y4486230D01*
X7054420Y4476580D01*
X7045950Y4468540D01*
G01X7065000Y4359950D02*
X6938000D01*
X7029020Y4419460D01*
Y4339040D01*
G01X7065000Y4249750D02*
X7062880Y4238490D01*
X7056540Y4225630D01*
X7045950Y4217580D01*
X7031130Y4214370D01*
X7016320Y4217580D01*
X7003620Y4227230D01*
X6997270Y4241710D01*
Y4257790D01*
X6993030Y4267440D01*
X6982450Y4275490D01*
X6967630Y4278700D01*
X6952820Y4273870D01*
X6942230Y4262620D01*
X6938000Y4249750D01*
X6942230Y4236880D01*
X6952820Y4225630D01*
X6967630Y4220800D01*
X6982450Y4224020D01*
X6993030Y4232060D01*
X6997270Y4241710D01*
Y4257790D01*
X7003620Y4272270D01*
X7016320Y4281920D01*
X7031130Y4285130D01*
X7045950Y4281920D01*
X7056540Y4273870D01*
X7062880Y4261010D01*
X7065000Y4249750D01*
G01X6962000Y4281000D02*
X6932000D01*
Y4341000D01*
X6962000D01*
Y4281000D01*
G01X7031630Y4711580D02*
X7021980Y4705230D01*
X7010730Y4701000D01*
X6997860D01*
X6983380Y4707350D01*
X6972130Y4717930D01*
X6964080Y4730630D01*
X6957650Y4751800D01*
X6956040Y4770850D01*
X6959260Y4789900D01*
X6964080Y4802600D01*
X6973730Y4815300D01*
X6984990Y4823770D01*
X6996250Y4828000D01*
X7007510D01*
X7018770Y4823770D01*
X7028420Y4817420D01*
X7036460Y4808950D01*
G01X7125750Y4828000D02*
X7137010Y4825880D01*
X7149870Y4819540D01*
X7157920Y4808950D01*
X7161130Y4794130D01*
X7157920Y4779320D01*
X7148270Y4766620D01*
X7133790Y4760270D01*
X7117710D01*
X7108060Y4756030D01*
X7100010Y4745450D01*
X7096800Y4730630D01*
X7101630Y4715820D01*
X7112880Y4705230D01*
X7125750Y4701000D01*
X7138620Y4705230D01*
X7149870Y4715820D01*
X7154700Y4730630D01*
X7151480Y4745450D01*
X7143440Y4756030D01*
X7133790Y4760270D01*
X7117710D01*
X7103230Y4766620D01*
X7093580Y4779320D01*
X7090370Y4794130D01*
X7093580Y4808950D01*
X7101630Y4819540D01*
X7114490Y4825880D01*
X7125750Y4828000D01*
G01X7224690Y4722170D02*
X7234340Y4709470D01*
X7245600Y4703120D01*
X7258470Y4701000D01*
X7274550Y4705230D01*
X7285810Y4715820D01*
X7289030Y4728510D01*
X7287420Y4741220D01*
X7280980Y4751800D01*
X7248820Y4772970D01*
X7234340Y4787780D01*
X7224690Y4808950D01*
X7221470Y4828000D01*
X7289030D01*
G01X7106420Y4791630D02*
X7112770Y4781980D01*
X7117000Y4770730D01*
Y4757860D01*
X7110650Y4743380D01*
X7100070Y4732130D01*
X7087370Y4724080D01*
X7066200Y4717650D01*
X7047150Y4716040D01*
X7028100Y4719260D01*
X7015400Y4724080D01*
X7002700Y4733730D01*
X6994230Y4744990D01*
X6990000Y4756250D01*
Y4767510D01*
X6994230Y4778770D01*
X7000580Y4788420D01*
X7009050Y4796460D01*
G01Y4850370D02*
X6998460Y4860010D01*
X6992120Y4871270D01*
X6990000Y4885750D01*
X6994230Y4900230D01*
X7002700Y4911480D01*
X7017510Y4919530D01*
X7034450Y4921130D01*
X7051380Y4917920D01*
X7061970Y4909870D01*
X7070430Y4898620D01*
X7072550Y4887360D01*
X7070430Y4876100D01*
X7061970Y4861630D01*
X7117000Y4866450D01*
Y4909870D01*
G01X6990000Y5012030D02*
X7017510Y5015250D01*
X7040800Y5020080D01*
X7061970Y5026510D01*
X7085250Y5034550D01*
X7117000Y5047420D01*
Y4983080D01*
G01X6918000Y4699000D02*
Y4729000D01*
X6978000D01*
Y4699000D01*
X6918000D01*
G01X6950000Y4761000D02*
X6920000D01*
Y4821000D01*
X6950000D01*
Y4761000D01*
G01X6939000Y4900000D02*
X6969000D01*
Y4840000D01*
X6939000D01*
Y4900000D01*
G01X6997000Y3715000D02*
Y3745000D01*
X7057000D01*
Y3715000D01*
X6997000D01*
G01X7089630Y3671580D02*
X7079980Y3665230D01*
X7068730Y3661000D01*
X7055860D01*
X7041380Y3667350D01*
X7030130Y3677930D01*
X7022080Y3690630D01*
X7015650Y3711800D01*
X7014040Y3730850D01*
X7017260Y3749900D01*
X7022080Y3762600D01*
X7031730Y3775300D01*
X7042990Y3783770D01*
X7054250Y3788000D01*
X7065510D01*
X7076770Y3783770D01*
X7086420Y3777420D01*
X7094460Y3768950D01*
G01X7183750Y3788000D02*
Y3661000D01*
X7164450Y3686400D01*
G01Y3788000D02*
X7203050D01*
G01X7313250D02*
Y3661000D01*
X7293950Y3686400D01*
G01Y3788000D02*
X7332550D01*
G01X7462050D02*
Y3661000D01*
X7402540Y3752020D01*
X7482960D01*
G01X7065080Y3869000D02*
Y3742000D01*
X7105290D01*
X7118160Y3748350D01*
X7126200Y3756820D01*
X7129420Y3773750D01*
X7126200Y3790680D01*
X7116550Y3801270D01*
X7105290Y3807620D01*
X7065080D01*
G01X7105290D02*
X7129420Y3869000D01*
G01X7226750D02*
X7238010Y3866880D01*
X7250870Y3860540D01*
X7258920Y3849950D01*
X7262130Y3835130D01*
X7258920Y3820320D01*
X7249270Y3807620D01*
X7234790Y3801270D01*
X7218710D01*
X7209060Y3797030D01*
X7201010Y3786450D01*
X7197800Y3771630D01*
X7202630Y3756820D01*
X7213880Y3746230D01*
X7226750Y3742000D01*
X7239620Y3746230D01*
X7250870Y3756820D01*
X7255700Y3771630D01*
X7252480Y3786450D01*
X7244440Y3797030D01*
X7234790Y3801270D01*
X7218710D01*
X7204230Y3807620D01*
X7194580Y3820320D01*
X7191370Y3835130D01*
X7194580Y3849950D01*
X7202630Y3860540D01*
X7215490Y3866880D01*
X7226750Y3869000D01*
G01X7356250D02*
X7367510Y3866880D01*
X7380370Y3860540D01*
X7388420Y3849950D01*
X7391630Y3835130D01*
X7388420Y3820320D01*
X7378770Y3807620D01*
X7364290Y3801270D01*
X7348210D01*
X7338560Y3797030D01*
X7330510Y3786450D01*
X7327300Y3771630D01*
X7332130Y3756820D01*
X7343380Y3746230D01*
X7356250Y3742000D01*
X7369120Y3746230D01*
X7380370Y3756820D01*
X7385200Y3771630D01*
X7381980Y3786450D01*
X7373940Y3797030D01*
X7364290Y3801270D01*
X7348210D01*
X7333730Y3807620D01*
X7324080Y3820320D01*
X7320870Y3835130D01*
X7324080Y3849950D01*
X7332130Y3860540D01*
X7344990Y3866880D01*
X7356250Y3869000D01*
G01X7185420Y3807630D02*
X7191770Y3797980D01*
X7196000Y3786730D01*
Y3773860D01*
X7189650Y3759380D01*
X7179070Y3748130D01*
X7166370Y3740080D01*
X7145200Y3733650D01*
X7126150Y3732040D01*
X7107100Y3735260D01*
X7094400Y3740080D01*
X7081700Y3749730D01*
X7073230Y3760990D01*
X7069000Y3772250D01*
Y3783510D01*
X7073230Y3794770D01*
X7079580Y3804420D01*
X7088050Y3812460D01*
G01X7069000Y3901750D02*
X7196000D01*
X7170600Y3882450D01*
G01X7069000D02*
Y3921050D01*
G01Y4031250D02*
X7196000D01*
X7170600Y4011950D01*
G01X7069000D02*
Y4050550D01*
G01X7088050Y4125370D02*
X7077460Y4135010D01*
X7071120Y4146270D01*
X7069000Y4160750D01*
X7073230Y4175230D01*
X7081700Y4186480D01*
X7096510Y4194530D01*
X7113450Y4196130D01*
X7130380Y4192920D01*
X7140970Y4184870D01*
X7149430Y4173620D01*
X7151550Y4162360D01*
X7149430Y4151100D01*
X7140970Y4136630D01*
X7196000Y4141450D01*
Y4184870D01*
G01X6997000Y3860000D02*
X7027000D01*
Y3800000D01*
X6997000D01*
Y3860000D01*
G01X7348920Y3872000D02*
Y3999000D01*
X7308710D01*
X7295840Y3992650D01*
X7287800Y3984180D01*
X7284580Y3967250D01*
X7287800Y3950320D01*
X7297450Y3939730D01*
X7308710Y3933380D01*
X7348920D01*
G01X7308710D02*
X7284580Y3872000D01*
G01X7187250D02*
X7175990Y3874120D01*
X7163130Y3880460D01*
X7155080Y3891050D01*
X7151870Y3905870D01*
X7155080Y3920680D01*
X7164730Y3933380D01*
X7179210Y3939730D01*
X7195290D01*
X7204940Y3943970D01*
X7212990Y3954550D01*
X7216200Y3969370D01*
X7211370Y3984180D01*
X7200120Y3994770D01*
X7187250Y3999000D01*
X7174380Y3994770D01*
X7163130Y3984180D01*
X7158300Y3969370D01*
X7161520Y3954550D01*
X7169560Y3943970D01*
X7179210Y3939730D01*
X7195290D01*
X7209770Y3933380D01*
X7219420Y3920680D01*
X7222630Y3905870D01*
X7219420Y3891050D01*
X7211370Y3880460D01*
X7198510Y3874120D01*
X7187250Y3872000D01*
G01X7060970D02*
X7057750Y3899510D01*
X7052920Y3922800D01*
X7046490Y3943970D01*
X7038450Y3967250D01*
X7025580Y3999000D01*
X7089920D01*
G01X7040000Y3941000D02*
X7070000D01*
Y3881000D01*
X7040000D01*
Y3941000D01*
G01X7260370Y4068420D02*
X7270020Y4074770D01*
X7281270Y4079000D01*
X7294140D01*
X7308620Y4072650D01*
X7319870Y4062070D01*
X7327920Y4049370D01*
X7334350Y4028200D01*
X7335960Y4009150D01*
X7332740Y3990100D01*
X7327920Y3977400D01*
X7318270Y3964700D01*
X7307010Y3956230D01*
X7295750Y3952000D01*
X7284490D01*
X7273230Y3956230D01*
X7263580Y3962580D01*
X7255540Y3971050D01*
G01X7166250Y3952000D02*
X7154990Y3954120D01*
X7142130Y3960460D01*
X7134080Y3971050D01*
X7130870Y3985870D01*
X7134080Y4000680D01*
X7143730Y4013380D01*
X7158210Y4019730D01*
X7174290D01*
X7183940Y4023970D01*
X7191990Y4034550D01*
X7195200Y4049370D01*
X7190370Y4064180D01*
X7179120Y4074770D01*
X7166250Y4079000D01*
X7153380Y4074770D01*
X7142130Y4064180D01*
X7137300Y4049370D01*
X7140520Y4034550D01*
X7148560Y4023970D01*
X7158210Y4019730D01*
X7174290D01*
X7188770Y4013380D01*
X7198420Y4000680D01*
X7201630Y3985870D01*
X7198420Y3971050D01*
X7190370Y3960460D01*
X7177510Y3954120D01*
X7166250Y3952000D01*
G01X7017450D02*
Y4079000D01*
X7076960Y3987980D01*
X6996540D01*
G01X7036000Y4041000D02*
X7006000D01*
Y4101000D01*
X7036000D01*
Y4041000D01*
G01X7029580Y4474370D02*
X7023230Y4484020D01*
X7019000Y4495270D01*
Y4508140D01*
X7025350Y4522620D01*
X7035930Y4533870D01*
X7048630Y4541920D01*
X7069800Y4548350D01*
X7088850Y4549960D01*
X7107900Y4546740D01*
X7120600Y4541920D01*
X7133300Y4532270D01*
X7141770Y4521010D01*
X7146000Y4509750D01*
Y4498490D01*
X7141770Y4487230D01*
X7135420Y4477580D01*
X7126950Y4469540D01*
G01X7146000Y4360950D02*
X7019000D01*
X7110020Y4420460D01*
Y4340040D01*
G01X7131190Y4278090D02*
X7141770Y4266830D01*
X7146000Y4253970D01*
X7141770Y4241100D01*
X7129070Y4229840D01*
X7110020Y4221800D01*
X7090970Y4218580D01*
X7067680D01*
X7048630Y4221800D01*
X7031700Y4229840D01*
X7023230Y4239490D01*
X7019000Y4250750D01*
X7023230Y4263620D01*
X7031700Y4273270D01*
X7044400Y4279700D01*
X7061340Y4282920D01*
X7076150Y4279700D01*
X7090970Y4271660D01*
X7099440Y4262010D01*
X7101550Y4250750D01*
X7097320Y4237880D01*
X7086730Y4228230D01*
X7067680Y4218580D01*
G01X7042000Y4201000D02*
X7012000D01*
Y4261000D01*
X7042000D01*
Y4201000D01*
G01X7115630Y4552580D02*
X7105980Y4546230D01*
X7094730Y4542000D01*
X7081860D01*
X7067380Y4548350D01*
X7056130Y4558930D01*
X7048080Y4571630D01*
X7041650Y4592800D01*
X7040040Y4611850D01*
X7043260Y4630900D01*
X7048080Y4643600D01*
X7057730Y4656300D01*
X7068990Y4664770D01*
X7080250Y4669000D01*
X7091510D01*
X7102770Y4664770D01*
X7112420Y4658420D01*
X7120460Y4649950D01*
G01X7174370Y4643600D02*
X7184010Y4658420D01*
X7196880Y4666880D01*
X7211360Y4669000D01*
X7224230Y4666880D01*
X7237090Y4656300D01*
X7245130Y4643600D01*
X7246740Y4630900D01*
X7243530Y4616090D01*
X7232270Y4605500D01*
X7221010Y4601270D01*
X7206530D01*
G01X7221010D02*
X7230660Y4594920D01*
X7238700Y4584340D01*
X7241920Y4571630D01*
X7238700Y4558930D01*
X7230660Y4548350D01*
X7216180Y4542000D01*
X7201710Y4544120D01*
X7187230Y4552580D01*
G01X7339250Y4669000D02*
X7350510Y4666880D01*
X7363370Y4660540D01*
X7371420Y4649950D01*
X7374630Y4635130D01*
X7371420Y4620320D01*
X7361770Y4607620D01*
X7347290Y4601270D01*
X7331210D01*
X7321560Y4597030D01*
X7313510Y4586450D01*
X7310300Y4571630D01*
X7315130Y4556820D01*
X7326380Y4546230D01*
X7339250Y4542000D01*
X7352120Y4546230D01*
X7363370Y4556820D01*
X7368200Y4571630D01*
X7364980Y4586450D01*
X7356940Y4597030D01*
X7347290Y4601270D01*
X7331210D01*
X7316730Y4607620D01*
X7307080Y4620320D01*
X7303870Y4635130D01*
X7307080Y4649950D01*
X7315130Y4660540D01*
X7327990Y4666880D01*
X7339250Y4669000D01*
G01X7117630Y4632580D02*
X7107980Y4626230D01*
X7096730Y4622000D01*
X7083860D01*
X7069380Y4628350D01*
X7058130Y4638930D01*
X7050080Y4651630D01*
X7043650Y4672800D01*
X7042040Y4691850D01*
X7045260Y4710900D01*
X7050080Y4723600D01*
X7059730Y4736300D01*
X7070990Y4744770D01*
X7082250Y4749000D01*
X7093510D01*
X7104770Y4744770D01*
X7114420Y4738420D01*
X7122460Y4729950D01*
G01X7211750Y4749000D02*
X7223010Y4746880D01*
X7235870Y4740540D01*
X7243920Y4729950D01*
X7247130Y4715130D01*
X7243920Y4700320D01*
X7234270Y4687620D01*
X7219790Y4681270D01*
X7203710D01*
X7194060Y4677030D01*
X7186010Y4666450D01*
X7182800Y4651630D01*
X7187630Y4636820D01*
X7198880Y4626230D01*
X7211750Y4622000D01*
X7224620Y4626230D01*
X7235870Y4636820D01*
X7240700Y4651630D01*
X7237480Y4666450D01*
X7229440Y4677030D01*
X7219790Y4681270D01*
X7203710D01*
X7189230Y4687620D01*
X7179580Y4700320D01*
X7176370Y4715130D01*
X7179580Y4729950D01*
X7187630Y4740540D01*
X7200490Y4746880D01*
X7211750Y4749000D01*
G01X7341250Y4622000D02*
X7328380Y4626230D01*
X7318730Y4636820D01*
X7312300Y4649510D01*
X7307470Y4666450D01*
X7305870Y4685500D01*
X7307470Y4704550D01*
X7312300Y4721490D01*
X7318730Y4734190D01*
X7328380Y4744770D01*
X7341250Y4749000D01*
X7354120Y4744770D01*
X7363770Y4734190D01*
X7370200Y4721490D01*
X7375030Y4704550D01*
X7376630Y4685500D01*
X7375030Y4666450D01*
X7370200Y4649510D01*
X7363770Y4636820D01*
X7354120Y4626230D01*
X7341250Y4622000D01*
G01X7023000Y4741000D02*
X7053000D01*
Y4681000D01*
X7023000D01*
Y4741000D01*
G01X7025000Y4821000D02*
X7055000D01*
Y4761000D01*
X7025000D01*
Y4821000D01*
G01X7127000Y3801000D02*
X7097000D01*
Y3861000D01*
X7127000D01*
Y3801000D01*
G01X7429920Y3793000D02*
Y3920000D01*
X7389710D01*
X7376840Y3913650D01*
X7368800Y3905180D01*
X7365580Y3888250D01*
X7368800Y3871320D01*
X7378450Y3860730D01*
X7389710Y3854380D01*
X7429920D01*
G01X7389710D02*
X7365580Y3793000D01*
G01X7303630Y3818400D02*
X7293990Y3803580D01*
X7281120Y3795120D01*
X7266640Y3793000D01*
X7253770Y3795120D01*
X7240910Y3805700D01*
X7232870Y3818400D01*
X7231260Y3831100D01*
X7234470Y3845910D01*
X7245730Y3856500D01*
X7256990Y3860730D01*
X7271470D01*
G01X7256990D02*
X7247340Y3867080D01*
X7239300Y3877660D01*
X7236080Y3890370D01*
X7239300Y3903070D01*
X7247340Y3913650D01*
X7261820Y3920000D01*
X7276290Y3917880D01*
X7290770Y3909420D01*
G01X7174130Y3818400D02*
X7164490Y3803580D01*
X7151620Y3795120D01*
X7137140Y3793000D01*
X7124270Y3795120D01*
X7111410Y3805700D01*
X7103370Y3818400D01*
X7101760Y3831100D01*
X7104970Y3845910D01*
X7116230Y3856500D01*
X7127490Y3860730D01*
X7141970D01*
G01X7127490D02*
X7117840Y3867080D01*
X7109800Y3877660D01*
X7106580Y3890370D01*
X7109800Y3903070D01*
X7117840Y3913650D01*
X7132320Y3920000D01*
X7146790Y3917880D01*
X7161270Y3909420D01*
G01X7108580Y4153370D02*
X7102230Y4163020D01*
X7098000Y4174270D01*
Y4187140D01*
X7104350Y4201620D01*
X7114930Y4212870D01*
X7127630Y4220920D01*
X7148800Y4227350D01*
X7167850Y4228960D01*
X7186900Y4225740D01*
X7199600Y4220920D01*
X7212300Y4211270D01*
X7220770Y4200010D01*
X7225000Y4188750D01*
Y4177490D01*
X7220770Y4166230D01*
X7214420Y4156580D01*
X7205950Y4148540D01*
G01X7225000Y4039950D02*
X7098000D01*
X7189020Y4099460D01*
Y4019040D01*
G01X7119170Y3960310D02*
X7106470Y3950660D01*
X7100120Y3939400D01*
X7098000Y3926530D01*
X7102230Y3910450D01*
X7112820Y3899190D01*
X7125510Y3895970D01*
X7138220Y3897580D01*
X7148800Y3904020D01*
X7169970Y3936180D01*
X7184780Y3950660D01*
X7205950Y3960310D01*
X7225000Y3963530D01*
Y3895970D01*
G01X7113000Y3960000D02*
X7083000D01*
Y4020000D01*
X7113000D01*
Y3960000D01*
G01X7266420Y4188630D02*
X7272770Y4178980D01*
X7277000Y4167730D01*
Y4154860D01*
X7270650Y4140380D01*
X7260070Y4129130D01*
X7247370Y4121080D01*
X7226200Y4114650D01*
X7207150Y4113040D01*
X7188100Y4116260D01*
X7175400Y4121080D01*
X7162700Y4130730D01*
X7154230Y4141990D01*
X7150000Y4153250D01*
Y4164510D01*
X7154230Y4175770D01*
X7160580Y4185420D01*
X7169050Y4193460D01*
G01X7150000Y4279530D02*
X7177510Y4282750D01*
X7200800Y4287580D01*
X7221970Y4294010D01*
X7245250Y4302050D01*
X7277000Y4314920D01*
Y4250580D01*
G01X7150000Y4409030D02*
X7177510Y4412250D01*
X7200800Y4417080D01*
X7221970Y4423510D01*
X7245250Y4431550D01*
X7277000Y4444420D01*
Y4380080D01*
G01X7078000Y4096000D02*
Y4126000D01*
X7138000D01*
Y4096000D01*
X7078000D01*
G01X7109580Y4544370D02*
X7103230Y4554020D01*
X7099000Y4565270D01*
Y4578140D01*
X7105350Y4592620D01*
X7115930Y4603870D01*
X7128630Y4611920D01*
X7149800Y4618350D01*
X7168850Y4619960D01*
X7187900Y4616740D01*
X7200600Y4611920D01*
X7213300Y4602270D01*
X7221770Y4591010D01*
X7226000Y4579750D01*
Y4568490D01*
X7221770Y4557230D01*
X7215420Y4547580D01*
X7206950Y4539540D01*
G01X7226000Y4453470D02*
X7198490Y4450250D01*
X7175200Y4445420D01*
X7154030Y4438990D01*
X7130750Y4430950D01*
X7099000Y4418080D01*
Y4482420D01*
G01X7211190Y4348090D02*
X7221770Y4336830D01*
X7226000Y4323970D01*
X7221770Y4311100D01*
X7209070Y4299840D01*
X7190020Y4291800D01*
X7170970Y4288580D01*
X7147680D01*
X7128630Y4291800D01*
X7111700Y4299840D01*
X7103230Y4309490D01*
X7099000Y4320750D01*
X7103230Y4333620D01*
X7111700Y4343270D01*
X7124400Y4349700D01*
X7141340Y4352920D01*
X7156150Y4349700D01*
X7170970Y4341660D01*
X7179440Y4332010D01*
X7181550Y4320750D01*
X7177320Y4307880D01*
X7166730Y4298230D01*
X7147680Y4288580D01*
G01X7137000Y4566000D02*
Y4536000D01*
X7077000D01*
Y4566000D01*
X7137000D01*
G01X7276630Y3752580D02*
X7266980Y3746230D01*
X7255730Y3742000D01*
X7242860D01*
X7228380Y3748350D01*
X7217130Y3758930D01*
X7209080Y3771630D01*
X7202650Y3792800D01*
X7201040Y3811850D01*
X7204260Y3830900D01*
X7209080Y3843600D01*
X7218730Y3856300D01*
X7229990Y3864770D01*
X7241250Y3869000D01*
X7252510D01*
X7263770Y3864770D01*
X7273420Y3858420D01*
X7281460Y3849950D01*
G01X7370750Y3869000D02*
X7382010Y3866880D01*
X7394870Y3860540D01*
X7402920Y3849950D01*
X7406130Y3835130D01*
X7402920Y3820320D01*
X7393270Y3807620D01*
X7378790Y3801270D01*
X7362710D01*
X7353060Y3797030D01*
X7345010Y3786450D01*
X7341800Y3771630D01*
X7346630Y3756820D01*
X7357880Y3746230D01*
X7370750Y3742000D01*
X7383620Y3746230D01*
X7394870Y3756820D01*
X7399700Y3771630D01*
X7396480Y3786450D01*
X7388440Y3797030D01*
X7378790Y3801270D01*
X7362710D01*
X7348230Y3807620D01*
X7338580Y3820320D01*
X7335370Y3835130D01*
X7338580Y3849950D01*
X7346630Y3860540D01*
X7359490Y3866880D01*
X7370750Y3869000D01*
G01X7464870Y3843600D02*
X7474510Y3858420D01*
X7487380Y3866880D01*
X7501860Y3869000D01*
X7514730Y3866880D01*
X7527590Y3856300D01*
X7535630Y3843600D01*
X7537240Y3830900D01*
X7534030Y3816090D01*
X7522770Y3805500D01*
X7511510Y3801270D01*
X7497030D01*
G01X7511510D02*
X7521160Y3794920D01*
X7529200Y3784340D01*
X7532420Y3771630D01*
X7529200Y3758930D01*
X7521160Y3748350D01*
X7506680Y3742000D01*
X7492210Y3744120D01*
X7477730Y3752580D01*
G01X7184000Y3941000D02*
X7214000D01*
Y3881000D01*
X7184000D01*
Y3941000D01*
G01X7264630Y3913580D02*
X7254980Y3907230D01*
X7243730Y3903000D01*
X7230860D01*
X7216380Y3909350D01*
X7205130Y3919930D01*
X7197080Y3932630D01*
X7190650Y3953800D01*
X7189040Y3972850D01*
X7192260Y3991900D01*
X7197080Y4004600D01*
X7206730Y4017300D01*
X7217990Y4025770D01*
X7229250Y4030000D01*
X7240510D01*
X7251770Y4025770D01*
X7261420Y4019420D01*
X7269460Y4010950D01*
G01X7378050Y4030000D02*
Y3903000D01*
X7318540Y3994020D01*
X7398960D01*
G01X7488250Y3903000D02*
X7475380Y3907230D01*
X7465730Y3917820D01*
X7459300Y3930510D01*
X7454470Y3947450D01*
X7452870Y3966500D01*
X7454470Y3985550D01*
X7459300Y4002490D01*
X7465730Y4015190D01*
X7475380Y4025770D01*
X7488250Y4030000D01*
X7501120Y4025770D01*
X7510770Y4015190D01*
X7517200Y4002490D01*
X7522030Y3985550D01*
X7523630Y3966500D01*
X7522030Y3947450D01*
X7517200Y3930510D01*
X7510770Y3917820D01*
X7501120Y3907230D01*
X7488250Y3903000D01*
G01X7266630Y3992580D02*
X7256980Y3986230D01*
X7245730Y3982000D01*
X7232860D01*
X7218380Y3988350D01*
X7207130Y3998930D01*
X7199080Y4011630D01*
X7192650Y4032800D01*
X7191040Y4051850D01*
X7194260Y4070900D01*
X7199080Y4083600D01*
X7208730Y4096300D01*
X7219990Y4104770D01*
X7231250Y4109000D01*
X7242510D01*
X7253770Y4104770D01*
X7263420Y4098420D01*
X7271460Y4089950D01*
G01X7325370Y4083600D02*
X7335010Y4098420D01*
X7347880Y4106880D01*
X7362360Y4109000D01*
X7375230Y4106880D01*
X7388090Y4096300D01*
X7396130Y4083600D01*
X7397740Y4070900D01*
X7394530Y4056090D01*
X7383270Y4045500D01*
X7372010Y4041270D01*
X7357530D01*
G01X7372010D02*
X7381660Y4034920D01*
X7389700Y4024340D01*
X7392920Y4011630D01*
X7389700Y3998930D01*
X7381660Y3988350D01*
X7367180Y3982000D01*
X7352710Y3984120D01*
X7338230Y3992580D01*
G01X7462910Y4094190D02*
X7474170Y4104770D01*
X7487030Y4109000D01*
X7499900Y4104770D01*
X7511160Y4092070D01*
X7519200Y4073020D01*
X7522420Y4053970D01*
Y4030680D01*
X7519200Y4011630D01*
X7511160Y3994700D01*
X7501510Y3986230D01*
X7490250Y3982000D01*
X7477380Y3986230D01*
X7467730Y3994700D01*
X7461300Y4007400D01*
X7458080Y4024340D01*
X7461300Y4039150D01*
X7469340Y4053970D01*
X7478990Y4062440D01*
X7490250Y4064550D01*
X7503120Y4060320D01*
X7512770Y4049730D01*
X7522420Y4030680D01*
G01X7237000Y3989000D02*
Y4019000D01*
X7297000D01*
Y3989000D01*
X7237000D01*
G01X7267630Y4072580D02*
X7257980Y4066230D01*
X7246730Y4062000D01*
X7233860D01*
X7219380Y4068350D01*
X7208130Y4078930D01*
X7200080Y4091630D01*
X7193650Y4112800D01*
X7192040Y4131850D01*
X7195260Y4150900D01*
X7200080Y4163600D01*
X7209730Y4176300D01*
X7220990Y4184770D01*
X7232250Y4189000D01*
X7243510D01*
X7254770Y4184770D01*
X7264420Y4178420D01*
X7272460Y4169950D01*
G01X7381050Y4189000D02*
Y4062000D01*
X7321540Y4153020D01*
X7401960D01*
G01X7491250Y4189000D02*
Y4062000D01*
X7471950Y4087400D01*
G01Y4189000D02*
X7510550D01*
G01X7172000Y4102000D02*
X7202000D01*
Y4042000D01*
X7172000D01*
Y4102000D01*
G01X7174000Y4181000D02*
X7204000D01*
Y4121000D01*
X7174000D01*
Y4181000D01*
G01X7297000Y4246000D02*
Y4216000D01*
X7237000D01*
Y4246000D01*
X7297000D01*
G01X7175000Y4261000D02*
X7205000D01*
Y4201000D01*
X7175000D01*
Y4261000D01*
G01X7190580Y4643370D02*
X7184230Y4653020D01*
X7180000Y4664270D01*
Y4677140D01*
X7186350Y4691620D01*
X7196930Y4702870D01*
X7209630Y4710920D01*
X7230800Y4717350D01*
X7249850Y4718960D01*
X7268900Y4715740D01*
X7281600Y4710920D01*
X7294300Y4701270D01*
X7302770Y4690010D01*
X7307000Y4678750D01*
Y4667490D01*
X7302770Y4656230D01*
X7296420Y4646580D01*
X7287950Y4638540D01*
G01Y4584630D02*
X7298540Y4574990D01*
X7304880Y4563730D01*
X7307000Y4549250D01*
X7302770Y4534770D01*
X7294300Y4523520D01*
X7279490Y4515470D01*
X7262550Y4513870D01*
X7245620Y4517080D01*
X7235030Y4525130D01*
X7226570Y4536380D01*
X7224450Y4547640D01*
X7226570Y4558900D01*
X7235030Y4573370D01*
X7180000Y4568550D01*
Y4525130D01*
G01X7254090Y4450310D02*
X7239270Y4439050D01*
X7230800Y4429400D01*
X7226570Y4416530D01*
X7230800Y4405270D01*
X7239270Y4397230D01*
X7251970Y4390800D01*
X7266780Y4389190D01*
X7279490Y4390800D01*
X7292190Y4397230D01*
X7302770Y4406880D01*
X7307000Y4418140D01*
X7302770Y4431010D01*
X7290070Y4442270D01*
X7271020Y4448700D01*
X7249850Y4450310D01*
X7222340Y4447090D01*
X7207510Y4442270D01*
X7192700Y4434230D01*
X7182120Y4422970D01*
X7180000Y4411710D01*
X7184230Y4400450D01*
X7194820Y4392410D01*
G01X7199000Y4362000D02*
X7169000D01*
Y4422000D01*
X7199000D01*
Y4362000D01*
G01X7218000Y4567000D02*
Y4537000D01*
X7158000D01*
Y4567000D01*
X7218000D01*
G01X7298000Y4637000D02*
Y4607000D01*
X7238000D01*
Y4637000D01*
X7298000D01*
G01X7189000Y4601000D02*
X7159000D01*
Y4661000D01*
X7189000D01*
Y4601000D01*
G01X7238000Y4707000D02*
Y4737000D01*
X7298000D01*
Y4707000D01*
X7238000D01*
G01X7193000Y4681000D02*
X7163000D01*
Y4741000D01*
X7193000D01*
Y4681000D01*
G01X7196000Y4761000D02*
X7166000D01*
Y4821000D01*
X7196000D01*
Y4761000D01*
G01X7353000Y3880000D02*
X7323000D01*
Y3940000D01*
X7353000D01*
Y3880000D01*
G01X7317000Y3982000D02*
Y4012000D01*
X7377000D01*
Y3982000D01*
X7317000D01*
G01X7425420Y4081630D02*
X7431770Y4071980D01*
X7436000Y4060730D01*
Y4047860D01*
X7429650Y4033380D01*
X7419070Y4022130D01*
X7406370Y4014080D01*
X7385200Y4007650D01*
X7366150Y4006040D01*
X7347100Y4009260D01*
X7334400Y4014080D01*
X7321700Y4023730D01*
X7313230Y4034990D01*
X7309000Y4046250D01*
Y4057510D01*
X7313230Y4068770D01*
X7319580Y4078420D01*
X7328050Y4086460D01*
G01X7414830Y4145190D02*
X7427530Y4154840D01*
X7433880Y4166100D01*
X7436000Y4178970D01*
X7431770Y4195050D01*
X7421180Y4206310D01*
X7408490Y4209530D01*
X7395780Y4207920D01*
X7385200Y4201480D01*
X7364030Y4169320D01*
X7349220Y4154840D01*
X7328050Y4145190D01*
X7309000Y4141970D01*
Y4209530D01*
G01X7361910Y4274690D02*
X7376730Y4285950D01*
X7385200Y4295600D01*
X7389430Y4308470D01*
X7385200Y4319730D01*
X7376730Y4327770D01*
X7364030Y4334200D01*
X7349220Y4335810D01*
X7336510Y4334200D01*
X7323810Y4327770D01*
X7313230Y4318120D01*
X7309000Y4306860D01*
X7313230Y4293990D01*
X7325930Y4282730D01*
X7344980Y4276300D01*
X7366150Y4274690D01*
X7393660Y4277910D01*
X7408490Y4282730D01*
X7423300Y4290770D01*
X7433880Y4302030D01*
X7436000Y4313290D01*
X7431770Y4324550D01*
X7421180Y4332590D01*
G01X7340000Y4182000D02*
X7370000D01*
Y4122000D01*
X7340000D01*
Y4182000D01*
G01X7317000Y4295000D02*
Y4325000D01*
X7377000D01*
Y4295000D01*
X7317000D01*
G01Y4389000D02*
Y4419000D01*
X7377000D01*
Y4389000D01*
X7317000D01*
G01X7345080Y4749000D02*
Y4622000D01*
X7385290D01*
X7398160Y4628350D01*
X7406200Y4636820D01*
X7409420Y4653750D01*
X7406200Y4670680D01*
X7396550Y4681270D01*
X7385290Y4687620D01*
X7345080D01*
G01X7385290D02*
X7409420Y4749000D01*
G01X7479410Y4734190D02*
X7490670Y4744770D01*
X7503530Y4749000D01*
X7516400Y4744770D01*
X7527660Y4732070D01*
X7535700Y4713020D01*
X7538920Y4693970D01*
Y4670680D01*
X7535700Y4651630D01*
X7527660Y4634700D01*
X7518010Y4626230D01*
X7506750Y4622000D01*
X7493880Y4626230D01*
X7484230Y4634700D01*
X7477800Y4647400D01*
X7474580Y4664340D01*
X7477800Y4679150D01*
X7485840Y4693970D01*
X7495490Y4702440D01*
X7506750Y4704550D01*
X7519620Y4700320D01*
X7529270Y4689730D01*
X7538920Y4670680D01*
G01X7655550Y4749000D02*
Y4622000D01*
X7596040Y4713020D01*
X7676460D01*
G01X7379000Y4736000D02*
Y4706000D01*
X7319000D01*
Y4736000D01*
X7379000D01*
G01X7426420Y4799630D02*
X7432770Y4789980D01*
X7437000Y4778730D01*
Y4765860D01*
X7430650Y4751380D01*
X7420070Y4740130D01*
X7407370Y4732080D01*
X7386200Y4725650D01*
X7367150Y4724040D01*
X7348100Y4727260D01*
X7335400Y4732080D01*
X7322700Y4741730D01*
X7314230Y4752990D01*
X7310000Y4764250D01*
Y4775510D01*
X7314230Y4786770D01*
X7320580Y4796420D01*
X7329050Y4804460D01*
G01Y4858370D02*
X7318460Y4868010D01*
X7312120Y4879270D01*
X7310000Y4893750D01*
X7314230Y4908230D01*
X7322700Y4919480D01*
X7337510Y4927530D01*
X7354450Y4929130D01*
X7371380Y4925920D01*
X7381970Y4917870D01*
X7390430Y4906620D01*
X7392550Y4895360D01*
X7390430Y4884100D01*
X7381970Y4869630D01*
X7437000Y4874450D01*
Y4917870D01*
G01X7329050Y4987870D02*
X7318460Y4997510D01*
X7312120Y5008770D01*
X7310000Y5023250D01*
X7314230Y5037730D01*
X7322700Y5048980D01*
X7337510Y5057030D01*
X7354450Y5058630D01*
X7371380Y5055420D01*
X7381970Y5047370D01*
X7390430Y5036120D01*
X7392550Y5024860D01*
X7390430Y5013600D01*
X7381970Y4999130D01*
X7437000Y5003950D01*
Y5047370D01*
G01X7320000Y4821000D02*
X7350000D01*
Y4761000D01*
X7320000D01*
Y4821000D01*
G01X7374000Y3800000D02*
X7344000D01*
Y3860000D01*
X7374000D01*
Y3800000D01*
G01X7455000Y3721000D02*
X7425000D01*
Y3781000D01*
X7455000D01*
Y3721000D01*
G01X7436630Y3912580D02*
X7426980Y3906230D01*
X7415730Y3902000D01*
X7402860D01*
X7388380Y3908350D01*
X7377130Y3918930D01*
X7369080Y3931630D01*
X7362650Y3952800D01*
X7361040Y3971850D01*
X7364260Y3990900D01*
X7369080Y4003600D01*
X7378730Y4016300D01*
X7389990Y4024770D01*
X7401250Y4029000D01*
X7412510D01*
X7423770Y4024770D01*
X7433420Y4018420D01*
X7441460Y4009950D01*
G01X7495370Y4003600D02*
X7505010Y4018420D01*
X7517880Y4026880D01*
X7532360Y4029000D01*
X7545230Y4026880D01*
X7558090Y4016300D01*
X7566130Y4003600D01*
X7567740Y3990900D01*
X7564530Y3976090D01*
X7553270Y3965500D01*
X7542010Y3961270D01*
X7527530D01*
G01X7542010D02*
X7551660Y3954920D01*
X7559700Y3944340D01*
X7562920Y3931630D01*
X7559700Y3918930D01*
X7551660Y3908350D01*
X7537180Y3902000D01*
X7522710Y3904120D01*
X7508230Y3912580D01*
G01X7624870Y4003600D02*
X7634510Y4018420D01*
X7647380Y4026880D01*
X7661860Y4029000D01*
X7674730Y4026880D01*
X7687590Y4016300D01*
X7695630Y4003600D01*
X7697240Y3990900D01*
X7694030Y3976090D01*
X7682770Y3965500D01*
X7671510Y3961270D01*
X7657030D01*
G01X7671510D02*
X7681160Y3954920D01*
X7689200Y3944340D01*
X7692420Y3931630D01*
X7689200Y3918930D01*
X7681160Y3908350D01*
X7666680Y3902000D01*
X7652210Y3904120D01*
X7637730Y3912580D01*
G01X7505420Y4074630D02*
X7511770Y4064980D01*
X7516000Y4053730D01*
Y4040860D01*
X7509650Y4026380D01*
X7499070Y4015130D01*
X7486370Y4007080D01*
X7465200Y4000650D01*
X7446150Y3999040D01*
X7427100Y4002260D01*
X7414400Y4007080D01*
X7401700Y4016730D01*
X7393230Y4027990D01*
X7389000Y4039250D01*
Y4050510D01*
X7393230Y4061770D01*
X7399580Y4071420D01*
X7408050Y4079460D01*
G01X7389000Y4165530D02*
X7416510Y4168750D01*
X7439800Y4173580D01*
X7460970Y4180010D01*
X7484250Y4188050D01*
X7516000Y4200920D01*
Y4136580D01*
G01X7408050Y4262870D02*
X7397460Y4272510D01*
X7391120Y4283770D01*
X7389000Y4298250D01*
X7393230Y4312730D01*
X7401700Y4323980D01*
X7416510Y4332030D01*
X7433450Y4333630D01*
X7450380Y4330420D01*
X7460970Y4322370D01*
X7469430Y4311120D01*
X7471550Y4299860D01*
X7469430Y4288600D01*
X7460970Y4274130D01*
X7516000Y4278950D01*
Y4322370D01*
G01X7586420Y4083630D02*
X7592770Y4073980D01*
X7597000Y4062730D01*
Y4049860D01*
X7590650Y4035380D01*
X7580070Y4024130D01*
X7567370Y4016080D01*
X7546200Y4009650D01*
X7527150Y4008040D01*
X7508100Y4011260D01*
X7495400Y4016080D01*
X7482700Y4025730D01*
X7474230Y4036990D01*
X7470000Y4048250D01*
Y4059510D01*
X7474230Y4070770D01*
X7480580Y4080420D01*
X7489050Y4088460D01*
G01X7495400Y4142370D02*
X7480580Y4152010D01*
X7472120Y4164880D01*
X7470000Y4179360D01*
X7472120Y4192230D01*
X7482700Y4205090D01*
X7495400Y4213130D01*
X7508100Y4214740D01*
X7522910Y4211530D01*
X7533500Y4200270D01*
X7537730Y4189010D01*
Y4174530D01*
G01Y4189010D02*
X7544080Y4198660D01*
X7554660Y4206700D01*
X7567370Y4209920D01*
X7580070Y4206700D01*
X7590650Y4198660D01*
X7597000Y4184180D01*
X7594880Y4169710D01*
X7586420Y4155230D01*
G01X7575830Y4276690D02*
X7588530Y4286340D01*
X7594880Y4297600D01*
X7597000Y4310470D01*
X7592770Y4326550D01*
X7582180Y4337810D01*
X7569490Y4341030D01*
X7556780Y4339420D01*
X7546200Y4332980D01*
X7525030Y4300820D01*
X7510220Y4286340D01*
X7489050Y4276690D01*
X7470000Y4273470D01*
Y4341030D01*
G01X7398000Y3991000D02*
Y4021000D01*
X7458000D01*
Y3991000D01*
X7398000D01*
G01X7432630Y3993580D02*
X7422980Y3987230D01*
X7411730Y3983000D01*
X7398860D01*
X7384380Y3989350D01*
X7373130Y3999930D01*
X7365080Y4012630D01*
X7358650Y4033800D01*
X7357040Y4052850D01*
X7360260Y4071900D01*
X7365080Y4084600D01*
X7374730Y4097300D01*
X7385990Y4105770D01*
X7397250Y4110000D01*
X7408510D01*
X7419770Y4105770D01*
X7429420Y4099420D01*
X7437460Y4090950D01*
G01X7491370Y4084600D02*
X7501010Y4099420D01*
X7513880Y4107880D01*
X7528360Y4110000D01*
X7541230Y4107880D01*
X7554090Y4097300D01*
X7562130Y4084600D01*
X7563740Y4071900D01*
X7560530Y4057090D01*
X7549270Y4046500D01*
X7538010Y4042270D01*
X7523530D01*
G01X7538010D02*
X7547660Y4035920D01*
X7555700Y4025340D01*
X7558920Y4012630D01*
X7555700Y3999930D01*
X7547660Y3989350D01*
X7533180Y3983000D01*
X7518710Y3985120D01*
X7504230Y3993580D01*
G01X7656250Y3983000D02*
X7643380Y3987230D01*
X7633730Y3997820D01*
X7627300Y4010510D01*
X7622470Y4027450D01*
X7620870Y4046500D01*
X7622470Y4065550D01*
X7627300Y4082490D01*
X7633730Y4095190D01*
X7643380Y4105770D01*
X7656250Y4110000D01*
X7669120Y4105770D01*
X7678770Y4095190D01*
X7685200Y4082490D01*
X7690030Y4065550D01*
X7691630Y4046500D01*
X7690030Y4027450D01*
X7685200Y4010510D01*
X7678770Y3997820D01*
X7669120Y3987230D01*
X7656250Y3983000D01*
G01X7344000Y4101000D02*
X7374000D01*
Y4041000D01*
X7344000D01*
Y4101000D01*
G01X7435630Y4071580D02*
X7425980Y4065230D01*
X7414730Y4061000D01*
X7401860D01*
X7387380Y4067350D01*
X7376130Y4077930D01*
X7368080Y4090630D01*
X7361650Y4111800D01*
X7360040Y4130850D01*
X7363260Y4149900D01*
X7368080Y4162600D01*
X7377730Y4175300D01*
X7388990Y4183770D01*
X7400250Y4188000D01*
X7411510D01*
X7422770Y4183770D01*
X7432420Y4177420D01*
X7440460Y4168950D01*
G01X7494370Y4162600D02*
X7504010Y4177420D01*
X7516880Y4185880D01*
X7531360Y4188000D01*
X7544230Y4185880D01*
X7557090Y4175300D01*
X7565130Y4162600D01*
X7566740Y4149900D01*
X7563530Y4135090D01*
X7552270Y4124500D01*
X7541010Y4120270D01*
X7526530D01*
G01X7541010D02*
X7550660Y4113920D01*
X7558700Y4103340D01*
X7561920Y4090630D01*
X7558700Y4077930D01*
X7550660Y4067350D01*
X7536180Y4061000D01*
X7521710Y4063120D01*
X7507230Y4071580D01*
G01X7659250Y4188000D02*
Y4061000D01*
X7639950Y4086400D01*
G01Y4188000D02*
X7678550D01*
G01X7343000Y4260000D02*
X7373000D01*
Y4200000D01*
X7343000D01*
Y4260000D01*
G01X7505420Y4387630D02*
X7511770Y4377980D01*
X7516000Y4366730D01*
Y4353860D01*
X7509650Y4339380D01*
X7499070Y4328130D01*
X7486370Y4320080D01*
X7465200Y4313650D01*
X7446150Y4312040D01*
X7427100Y4315260D01*
X7414400Y4320080D01*
X7401700Y4329730D01*
X7393230Y4340990D01*
X7389000Y4352250D01*
Y4363510D01*
X7393230Y4374770D01*
X7399580Y4384420D01*
X7408050Y4392460D01*
G01X7494830Y4451190D02*
X7507530Y4460840D01*
X7513880Y4472100D01*
X7516000Y4484970D01*
X7511770Y4501050D01*
X7501180Y4512310D01*
X7488490Y4515530D01*
X7475780Y4513920D01*
X7465200Y4507480D01*
X7444030Y4475320D01*
X7429220Y4460840D01*
X7408050Y4451190D01*
X7389000Y4447970D01*
Y4515530D01*
G01X7403810Y4583910D02*
X7393230Y4595170D01*
X7389000Y4608030D01*
X7393230Y4620900D01*
X7405930Y4632160D01*
X7424980Y4640200D01*
X7444030Y4643420D01*
X7467320D01*
X7486370Y4640200D01*
X7503300Y4632160D01*
X7511770Y4622510D01*
X7516000Y4611250D01*
X7511770Y4598380D01*
X7503300Y4588730D01*
X7490600Y4582300D01*
X7473660Y4579080D01*
X7458850Y4582300D01*
X7444030Y4590340D01*
X7435560Y4599990D01*
X7433450Y4611250D01*
X7437680Y4624120D01*
X7448270Y4633770D01*
X7467320Y4643420D01*
G01X7585420Y4400630D02*
X7591770Y4390980D01*
X7596000Y4379730D01*
Y4366860D01*
X7589650Y4352380D01*
X7579070Y4341130D01*
X7566370Y4333080D01*
X7545200Y4326650D01*
X7526150Y4325040D01*
X7507100Y4328260D01*
X7494400Y4333080D01*
X7481700Y4342730D01*
X7473230Y4353990D01*
X7469000Y4365250D01*
Y4376510D01*
X7473230Y4387770D01*
X7479580Y4397420D01*
X7488050Y4405460D01*
G01X7574830Y4464190D02*
X7587530Y4473840D01*
X7593880Y4485100D01*
X7596000Y4497970D01*
X7591770Y4514050D01*
X7581180Y4525310D01*
X7568490Y4528530D01*
X7555780Y4526920D01*
X7545200Y4520480D01*
X7524030Y4488320D01*
X7509220Y4473840D01*
X7488050Y4464190D01*
X7469000Y4460970D01*
Y4528530D01*
G01X7494400Y4588870D02*
X7479580Y4598510D01*
X7471120Y4611380D01*
X7469000Y4625860D01*
X7471120Y4638730D01*
X7481700Y4651590D01*
X7494400Y4659630D01*
X7507100Y4661240D01*
X7521910Y4658030D01*
X7532500Y4646770D01*
X7536730Y4635510D01*
Y4621030D01*
G01Y4635510D02*
X7543080Y4645160D01*
X7553660Y4653200D01*
X7566370Y4656420D01*
X7579070Y4653200D01*
X7589650Y4645160D01*
X7596000Y4630680D01*
X7593880Y4616210D01*
X7585420Y4601730D01*
G01X7397000Y4308000D02*
Y4338000D01*
X7457000D01*
Y4308000D01*
X7397000D01*
G01X7435630Y4472580D02*
X7425980Y4466230D01*
X7414730Y4462000D01*
X7401860D01*
X7387380Y4468350D01*
X7376130Y4478930D01*
X7368080Y4491630D01*
X7361650Y4512800D01*
X7360040Y4531850D01*
X7363260Y4550900D01*
X7368080Y4563600D01*
X7377730Y4576300D01*
X7388990Y4584770D01*
X7400250Y4589000D01*
X7411510D01*
X7422770Y4584770D01*
X7432420Y4578420D01*
X7440460Y4569950D01*
G01X7526530Y4589000D02*
X7529750Y4561490D01*
X7534580Y4538200D01*
X7541010Y4517030D01*
X7549050Y4493750D01*
X7561920Y4462000D01*
X7497580D01*
G01X7659250Y4589000D02*
Y4462000D01*
X7639950Y4487400D01*
G01Y4589000D02*
X7678550D01*
G01X7505420Y4481630D02*
X7511770Y4471980D01*
X7516000Y4460730D01*
Y4447860D01*
X7509650Y4433380D01*
X7499070Y4422130D01*
X7486370Y4414080D01*
X7465200Y4407650D01*
X7446150Y4406040D01*
X7427100Y4409260D01*
X7414400Y4414080D01*
X7401700Y4423730D01*
X7393230Y4434990D01*
X7389000Y4446250D01*
Y4457510D01*
X7393230Y4468770D01*
X7399580Y4478420D01*
X7408050Y4486460D01*
G01X7494830Y4545190D02*
X7507530Y4554840D01*
X7513880Y4566100D01*
X7516000Y4578970D01*
X7511770Y4595050D01*
X7501180Y4606310D01*
X7488490Y4609530D01*
X7475780Y4607920D01*
X7465200Y4601480D01*
X7444030Y4569320D01*
X7429220Y4554840D01*
X7408050Y4545190D01*
X7389000Y4541970D01*
Y4609530D01*
G01Y4705250D02*
X7391120Y4716510D01*
X7397460Y4729370D01*
X7408050Y4737420D01*
X7422870Y4740630D01*
X7437680Y4737420D01*
X7450380Y4727770D01*
X7456730Y4713290D01*
Y4697210D01*
X7460970Y4687560D01*
X7471550Y4679510D01*
X7486370Y4676300D01*
X7501180Y4681130D01*
X7511770Y4692380D01*
X7516000Y4705250D01*
X7511770Y4718120D01*
X7501180Y4729370D01*
X7486370Y4734200D01*
X7471550Y4730980D01*
X7460970Y4722940D01*
X7456730Y4713290D01*
Y4697210D01*
X7450380Y4682730D01*
X7437680Y4673080D01*
X7422870Y4669870D01*
X7408050Y4673080D01*
X7397460Y4681130D01*
X7391120Y4693990D01*
X7389000Y4705250D01*
G01X7397000Y4466000D02*
Y4496000D01*
X7457000D01*
Y4466000D01*
X7397000D01*
G01X7585420Y4558630D02*
X7591770Y4548980D01*
X7596000Y4537730D01*
Y4524860D01*
X7589650Y4510380D01*
X7579070Y4499130D01*
X7566370Y4491080D01*
X7545200Y4484650D01*
X7526150Y4483040D01*
X7507100Y4486260D01*
X7494400Y4491080D01*
X7481700Y4500730D01*
X7473230Y4511990D01*
X7469000Y4523250D01*
Y4534510D01*
X7473230Y4545770D01*
X7479580Y4555420D01*
X7488050Y4563460D01*
G01X7574830Y4622190D02*
X7587530Y4631840D01*
X7593880Y4643100D01*
X7596000Y4655970D01*
X7591770Y4672050D01*
X7581180Y4683310D01*
X7568490Y4686530D01*
X7555780Y4684920D01*
X7545200Y4678480D01*
X7524030Y4646320D01*
X7509220Y4631840D01*
X7488050Y4622190D01*
X7469000Y4618970D01*
Y4686530D01*
G01Y4779030D02*
X7496510Y4782250D01*
X7519800Y4787080D01*
X7540970Y4793510D01*
X7564250Y4801550D01*
X7596000Y4814420D01*
Y4750080D01*
G01X7343000Y4661000D02*
X7373000D01*
Y4601000D01*
X7343000D01*
Y4661000D01*
G01X7425080Y4830000D02*
Y4703000D01*
X7465290D01*
X7478160Y4709350D01*
X7486200Y4717820D01*
X7489420Y4734750D01*
X7486200Y4751680D01*
X7476550Y4762270D01*
X7465290Y4768620D01*
X7425080D01*
G01X7465290D02*
X7489420Y4830000D01*
G01X7559410Y4815190D02*
X7570670Y4825770D01*
X7583530Y4830000D01*
X7596400Y4825770D01*
X7607660Y4813070D01*
X7615700Y4794020D01*
X7618920Y4774970D01*
Y4751680D01*
X7615700Y4732630D01*
X7607660Y4715700D01*
X7598010Y4707230D01*
X7586750Y4703000D01*
X7573880Y4707230D01*
X7564230Y4715700D01*
X7557800Y4728400D01*
X7554580Y4745340D01*
X7557800Y4760150D01*
X7565840Y4774970D01*
X7575490Y4783440D01*
X7586750Y4785550D01*
X7599620Y4781320D01*
X7609270Y4770730D01*
X7618920Y4751680D01*
G01X7680870Y4804600D02*
X7690510Y4819420D01*
X7703380Y4827880D01*
X7717860Y4830000D01*
X7730730Y4827880D01*
X7743590Y4817300D01*
X7751630Y4804600D01*
X7753240Y4791900D01*
X7750030Y4777090D01*
X7738770Y4766500D01*
X7727510Y4762270D01*
X7713030D01*
G01X7727510D02*
X7737160Y4755920D01*
X7745200Y4745340D01*
X7748420Y4732630D01*
X7745200Y4719930D01*
X7737160Y4709350D01*
X7722680Y4703000D01*
X7708210Y4705120D01*
X7693730Y4713580D01*
G01X7586420Y4796630D02*
X7592770Y4786980D01*
X7597000Y4775730D01*
Y4762860D01*
X7590650Y4748380D01*
X7580070Y4737130D01*
X7567370Y4729080D01*
X7546200Y4722650D01*
X7527150Y4721040D01*
X7508100Y4724260D01*
X7495400Y4729080D01*
X7482700Y4738730D01*
X7474230Y4749990D01*
X7470000Y4761250D01*
Y4772510D01*
X7474230Y4783770D01*
X7480580Y4793420D01*
X7489050Y4801460D01*
G01X7470000Y4887530D02*
X7497510Y4890750D01*
X7520800Y4895580D01*
X7541970Y4902010D01*
X7565250Y4910050D01*
X7597000Y4922920D01*
Y4858580D01*
G01X7575830Y4989690D02*
X7588530Y4999340D01*
X7594880Y5010600D01*
X7597000Y5023470D01*
X7592770Y5039550D01*
X7582180Y5050810D01*
X7569490Y5054030D01*
X7556780Y5052420D01*
X7546200Y5045980D01*
X7525030Y5013820D01*
X7510220Y4999340D01*
X7489050Y4989690D01*
X7470000Y4986470D01*
Y5054030D01*
G01X7398000Y4704000D02*
Y4734000D01*
X7458000D01*
Y4704000D01*
X7398000D01*
G01X7400000Y4902000D02*
X7430000D01*
Y4842000D01*
X7400000D01*
Y4902000D01*
G01X7425080Y4989000D02*
Y4862000D01*
X7465290D01*
X7478160Y4868350D01*
X7486200Y4876820D01*
X7489420Y4893750D01*
X7486200Y4910680D01*
X7476550Y4921270D01*
X7465290Y4927620D01*
X7425080D01*
G01X7465290D02*
X7489420Y4989000D01*
G01X7559410Y4974190D02*
X7570670Y4984770D01*
X7583530Y4989000D01*
X7596400Y4984770D01*
X7607660Y4972070D01*
X7615700Y4953020D01*
X7618920Y4933970D01*
Y4910680D01*
X7615700Y4891630D01*
X7607660Y4874700D01*
X7598010Y4866230D01*
X7586750Y4862000D01*
X7573880Y4866230D01*
X7564230Y4874700D01*
X7557800Y4887400D01*
X7554580Y4904340D01*
X7557800Y4919150D01*
X7565840Y4933970D01*
X7575490Y4942440D01*
X7586750Y4944550D01*
X7599620Y4940320D01*
X7609270Y4929730D01*
X7618920Y4910680D01*
G01X7716250Y4862000D02*
X7703380Y4866230D01*
X7693730Y4876820D01*
X7687300Y4889510D01*
X7682470Y4906450D01*
X7680870Y4925500D01*
X7682470Y4944550D01*
X7687300Y4961490D01*
X7693730Y4974190D01*
X7703380Y4984770D01*
X7716250Y4989000D01*
X7729120Y4984770D01*
X7738770Y4974190D01*
X7745200Y4961490D01*
X7750030Y4944550D01*
X7751630Y4925500D01*
X7750030Y4906450D01*
X7745200Y4889510D01*
X7738770Y4876820D01*
X7729120Y4866230D01*
X7716250Y4862000D01*
G01X7400000Y5061000D02*
X7430000D01*
Y5001000D01*
X7400000D01*
Y5061000D01*
G01X7425080Y5071000D02*
Y4944000D01*
X7465290D01*
X7478160Y4950350D01*
X7486200Y4958820D01*
X7489420Y4975750D01*
X7486200Y4992680D01*
X7476550Y5003270D01*
X7465290Y5009620D01*
X7425080D01*
G01X7465290D02*
X7489420Y5071000D01*
G01X7559410Y5056190D02*
X7570670Y5066770D01*
X7583530Y5071000D01*
X7596400Y5066770D01*
X7607660Y5054070D01*
X7615700Y5035020D01*
X7618920Y5015970D01*
Y4992680D01*
X7615700Y4973630D01*
X7607660Y4956700D01*
X7598010Y4948230D01*
X7586750Y4944000D01*
X7573880Y4948230D01*
X7564230Y4956700D01*
X7557800Y4969400D01*
X7554580Y4986340D01*
X7557800Y5001150D01*
X7565840Y5015970D01*
X7575490Y5024440D01*
X7586750Y5026550D01*
X7599620Y5022320D01*
X7609270Y5011730D01*
X7618920Y4992680D01*
G01X7685690Y4965170D02*
X7695340Y4952470D01*
X7706600Y4946120D01*
X7719470Y4944000D01*
X7735550Y4948230D01*
X7746810Y4958820D01*
X7750030Y4971510D01*
X7748420Y4984220D01*
X7741980Y4994800D01*
X7709820Y5015970D01*
X7695340Y5030780D01*
X7685690Y5051950D01*
X7682470Y5071000D01*
X7750030D01*
G01X7400000Y5143000D02*
X7430000D01*
Y5083000D01*
X7400000D01*
Y5143000D01*
G01X7587080Y4261000D02*
Y4134000D01*
X7627290D01*
X7640160Y4140350D01*
X7648200Y4148820D01*
X7651420Y4165750D01*
X7648200Y4182680D01*
X7638550Y4193270D01*
X7627290Y4199620D01*
X7587080D01*
G01X7627290D02*
X7651420Y4261000D01*
G01X7748750D02*
Y4134000D01*
X7729450Y4159400D01*
G01Y4261000D02*
X7768050D01*
G01X7842870Y4241950D02*
X7852510Y4252540D01*
X7863770Y4258880D01*
X7878250Y4261000D01*
X7892730Y4256770D01*
X7903980Y4248300D01*
X7912030Y4233490D01*
X7913630Y4216550D01*
X7910420Y4199620D01*
X7902370Y4189030D01*
X7891120Y4180570D01*
X7879860Y4178450D01*
X7868600Y4180570D01*
X7854130Y4189030D01*
X7858950Y4134000D01*
X7902370D01*
G01X7562000Y4333000D02*
X7592000D01*
Y4273000D01*
X7562000D01*
Y4333000D01*
G01X8042580Y4071370D02*
X8036230Y4081020D01*
X8032000Y4092270D01*
Y4105140D01*
X8038350Y4119620D01*
X8048930Y4130870D01*
X8061630Y4138920D01*
X8082800Y4145350D01*
X8101850Y4146960D01*
X8120900Y4143740D01*
X8133600Y4138920D01*
X8146300Y4129270D01*
X8154770Y4118010D01*
X8159000Y4106750D01*
Y4095490D01*
X8154770Y4084230D01*
X8148420Y4074580D01*
X8139950Y4066540D01*
G01X8159000Y3977250D02*
X8032000D01*
X8057400Y3996550D01*
G01X8159000D02*
Y3957950D01*
G01X8032000Y3847750D02*
X8036230Y3860620D01*
X8046820Y3870270D01*
X8059510Y3876700D01*
X8076450Y3881530D01*
X8095500Y3883130D01*
X8114550Y3881530D01*
X8131490Y3876700D01*
X8144190Y3870270D01*
X8154770Y3860620D01*
X8159000Y3847750D01*
X8154770Y3834880D01*
X8144190Y3825230D01*
X8131490Y3818800D01*
X8114550Y3813970D01*
X8095500Y3812370D01*
X8076450Y3813970D01*
X8059510Y3818800D01*
X8046820Y3825230D01*
X8036230Y3834880D01*
X8032000Y3847750D01*
G01X8159000Y3698950D02*
X8032000D01*
X8123020Y3758460D01*
Y3678040D01*
G01X8041580Y4206370D02*
X8035230Y4216020D01*
X8031000Y4227270D01*
Y4240140D01*
X8037350Y4254620D01*
X8047930Y4265870D01*
X8060630Y4273920D01*
X8081800Y4280350D01*
X8100850Y4281960D01*
X8119900Y4278740D01*
X8132600Y4273920D01*
X8145300Y4264270D01*
X8153770Y4253010D01*
X8158000Y4241750D01*
Y4230490D01*
X8153770Y4219230D01*
X8147420Y4209580D01*
X8138950Y4201540D01*
G01X8158000Y4112250D02*
X8031000D01*
X8056400Y4131550D01*
G01X8158000D02*
Y4092950D01*
G01X8031000Y3982750D02*
X8035230Y3995620D01*
X8045820Y4005270D01*
X8058510Y4011700D01*
X8075450Y4016530D01*
X8094500Y4018130D01*
X8113550Y4016530D01*
X8130490Y4011700D01*
X8143190Y4005270D01*
X8153770Y3995620D01*
X8158000Y3982750D01*
X8153770Y3969880D01*
X8143190Y3960230D01*
X8130490Y3953800D01*
X8113550Y3948970D01*
X8094500Y3947370D01*
X8075450Y3948970D01*
X8058510Y3953800D01*
X8045820Y3960230D01*
X8035230Y3969880D01*
X8031000Y3982750D01*
G01X8132600Y3888630D02*
X8147420Y3878990D01*
X8155880Y3866120D01*
X8158000Y3851640D01*
X8155880Y3838770D01*
X8145300Y3825910D01*
X8132600Y3817870D01*
X8119900Y3816260D01*
X8105090Y3819470D01*
X8094500Y3830730D01*
X8090270Y3841990D01*
Y3856470D01*
G01Y3841990D02*
X8083920Y3832340D01*
X8073340Y3824300D01*
X8060630Y3821080D01*
X8047930Y3824300D01*
X8037350Y3832340D01*
X8031000Y3846820D01*
X8033120Y3861290D01*
X8041580Y3875770D01*
G01X8042580Y4447370D02*
X8036230Y4457020D01*
X8032000Y4468270D01*
Y4481140D01*
X8038350Y4495620D01*
X8048930Y4506870D01*
X8061630Y4514920D01*
X8082800Y4521350D01*
X8101850Y4522960D01*
X8120900Y4519740D01*
X8133600Y4514920D01*
X8146300Y4505270D01*
X8154770Y4494010D01*
X8159000Y4482750D01*
Y4471490D01*
X8154770Y4460230D01*
X8148420Y4450580D01*
X8139950Y4442540D01*
G01X8144190Y4380590D02*
X8154770Y4369330D01*
X8159000Y4356470D01*
X8154770Y4343600D01*
X8142070Y4332340D01*
X8123020Y4324300D01*
X8103970Y4321080D01*
X8080680D01*
X8061630Y4324300D01*
X8044700Y4332340D01*
X8036230Y4341990D01*
X8032000Y4353250D01*
X8036230Y4366120D01*
X8044700Y4375770D01*
X8057400Y4382200D01*
X8074340Y4385420D01*
X8089150Y4382200D01*
X8103970Y4374160D01*
X8112440Y4364510D01*
X8114550Y4353250D01*
X8110320Y4340380D01*
X8099730Y4330730D01*
X8080680Y4321080D01*
G01X8144190Y4251090D02*
X8154770Y4239830D01*
X8159000Y4226970D01*
X8154770Y4214100D01*
X8142070Y4202840D01*
X8123020Y4194800D01*
X8103970Y4191580D01*
X8080680D01*
X8061630Y4194800D01*
X8044700Y4202840D01*
X8036230Y4212490D01*
X8032000Y4223750D01*
X8036230Y4236620D01*
X8044700Y4246270D01*
X8057400Y4252700D01*
X8074340Y4255920D01*
X8089150Y4252700D01*
X8103970Y4244660D01*
X8112440Y4235010D01*
X8114550Y4223750D01*
X8110320Y4210880D01*
X8099730Y4201230D01*
X8080680Y4191580D01*
G01X8261630Y3816580D02*
X8251980Y3810230D01*
X8240730Y3806000D01*
X8227860D01*
X8213380Y3812350D01*
X8202130Y3822930D01*
X8194080Y3835630D01*
X8187650Y3856800D01*
X8186040Y3875850D01*
X8189260Y3894900D01*
X8194080Y3907600D01*
X8203730Y3920300D01*
X8214990Y3928770D01*
X8226250Y3933000D01*
X8237510D01*
X8248770Y3928770D01*
X8258420Y3922420D01*
X8266460Y3913950D01*
G01X8355750Y3933000D02*
Y3806000D01*
X8336450Y3831400D01*
G01Y3933000D02*
X8375050D01*
G01X8485250Y3806000D02*
X8472380Y3810230D01*
X8462730Y3820820D01*
X8456300Y3833510D01*
X8451470Y3850450D01*
X8449870Y3869500D01*
X8451470Y3888550D01*
X8456300Y3905490D01*
X8462730Y3918190D01*
X8472380Y3928770D01*
X8485250Y3933000D01*
X8498120Y3928770D01*
X8507770Y3918190D01*
X8514200Y3905490D01*
X8519030Y3888550D01*
X8520630Y3869500D01*
X8519030Y3850450D01*
X8514200Y3833510D01*
X8507770Y3820820D01*
X8498120Y3810230D01*
X8485250Y3806000D01*
G01X8587410Y3918190D02*
X8598670Y3928770D01*
X8611530Y3933000D01*
X8624400Y3928770D01*
X8635660Y3916070D01*
X8643700Y3897020D01*
X8646920Y3877970D01*
Y3854680D01*
X8643700Y3835630D01*
X8635660Y3818700D01*
X8626010Y3810230D01*
X8614750Y3806000D01*
X8601880Y3810230D01*
X8592230Y3818700D01*
X8585800Y3831400D01*
X8582580Y3848340D01*
X8585800Y3863150D01*
X8593840Y3877970D01*
X8603490Y3886440D01*
X8614750Y3888550D01*
X8627620Y3884320D01*
X8637270Y3873730D01*
X8646920Y3854680D01*
G01X8169000Y4005000D02*
X8199000D01*
Y3945000D01*
X8169000D01*
Y4005000D01*
G01X8231000Y4164000D02*
Y4134000D01*
X8171000D01*
Y4164000D01*
X8231000D01*
G01X8230000Y4299000D02*
Y4269000D01*
X8170000D01*
Y4299000D01*
X8230000D01*
G01X8237630Y4295580D02*
X8227980Y4289230D01*
X8216730Y4285000D01*
X8203860D01*
X8189380Y4291350D01*
X8178130Y4301930D01*
X8170080Y4314630D01*
X8163650Y4335800D01*
X8162040Y4354850D01*
X8165260Y4373900D01*
X8170080Y4386600D01*
X8179730Y4399300D01*
X8190990Y4407770D01*
X8202250Y4412000D01*
X8213510D01*
X8224770Y4407770D01*
X8234420Y4401420D01*
X8242460Y4392950D01*
G01X8331750Y4412000D02*
Y4285000D01*
X8312450Y4310400D01*
G01Y4412000D02*
X8351050D01*
G01X8461250Y4285000D02*
X8448380Y4289230D01*
X8438730Y4299820D01*
X8432300Y4312510D01*
X8427470Y4329450D01*
X8425870Y4348500D01*
X8427470Y4367550D01*
X8432300Y4384490D01*
X8438730Y4397190D01*
X8448380Y4407770D01*
X8461250Y4412000D01*
X8474120Y4407770D01*
X8483770Y4397190D01*
X8490200Y4384490D01*
X8495030Y4367550D01*
X8496630Y4348500D01*
X8495030Y4329450D01*
X8490200Y4312510D01*
X8483770Y4299820D01*
X8474120Y4289230D01*
X8461250Y4285000D01*
G01X8590750Y4412000D02*
Y4285000D01*
X8571450Y4310400D01*
G01Y4412000D02*
X8610050D01*
G01X8263630Y4455580D02*
X8253980Y4449230D01*
X8242730Y4445000D01*
X8229860D01*
X8215380Y4451350D01*
X8204130Y4461930D01*
X8196080Y4474630D01*
X8189650Y4495800D01*
X8188040Y4514850D01*
X8191260Y4533900D01*
X8196080Y4546600D01*
X8205730Y4559300D01*
X8216990Y4567770D01*
X8228250Y4572000D01*
X8239510D01*
X8250770Y4567770D01*
X8260420Y4561420D01*
X8268460Y4552950D01*
G01X8357750Y4572000D02*
Y4445000D01*
X8338450Y4470400D01*
G01Y4572000D02*
X8377050D01*
G01X8487250Y4445000D02*
X8474380Y4449230D01*
X8464730Y4459820D01*
X8458300Y4472510D01*
X8453470Y4489450D01*
X8451870Y4508500D01*
X8453470Y4527550D01*
X8458300Y4544490D01*
X8464730Y4557190D01*
X8474380Y4567770D01*
X8487250Y4572000D01*
X8500120Y4567770D01*
X8509770Y4557190D01*
X8516200Y4544490D01*
X8521030Y4527550D01*
X8522630Y4508500D01*
X8521030Y4489450D01*
X8516200Y4472510D01*
X8509770Y4459820D01*
X8500120Y4449230D01*
X8487250Y4445000D01*
G01X8586190Y4519090D02*
X8597450Y4504270D01*
X8607100Y4495800D01*
X8619970Y4491570D01*
X8631230Y4495800D01*
X8639270Y4504270D01*
X8645700Y4516970D01*
X8647310Y4531780D01*
X8645700Y4544490D01*
X8639270Y4557190D01*
X8629620Y4567770D01*
X8618360Y4572000D01*
X8605490Y4567770D01*
X8594230Y4555070D01*
X8587800Y4536020D01*
X8586190Y4514850D01*
X8589410Y4487340D01*
X8594230Y4472510D01*
X8602270Y4457700D01*
X8613530Y4447120D01*
X8624790Y4445000D01*
X8636050Y4449230D01*
X8644090Y4459820D01*
G01X8145000Y4484000D02*
X8175000D01*
Y4424000D01*
X8145000D01*
Y4484000D01*
G01X8231000Y4540000D02*
Y4510000D01*
X8171000D01*
Y4540000D01*
X8231000D01*
G01X8171000Y4644000D02*
X8201000D01*
Y4584000D01*
X8171000D01*
Y4644000D01*
G01X8295630Y4545580D02*
X8285980Y4539230D01*
X8274730Y4535000D01*
X8261860D01*
X8247380Y4541350D01*
X8236130Y4551930D01*
X8228080Y4564630D01*
X8221650Y4585800D01*
X8220040Y4604850D01*
X8223260Y4623900D01*
X8228080Y4636600D01*
X8237730Y4649300D01*
X8248990Y4657770D01*
X8260250Y4662000D01*
X8271510D01*
X8282770Y4657770D01*
X8292420Y4651420D01*
X8300460Y4642950D01*
G01X8362410Y4647190D02*
X8373670Y4657770D01*
X8386530Y4662000D01*
X8399400Y4657770D01*
X8410660Y4645070D01*
X8418700Y4626020D01*
X8421920Y4606970D01*
Y4583680D01*
X8418700Y4564630D01*
X8410660Y4547700D01*
X8401010Y4539230D01*
X8389750Y4535000D01*
X8376880Y4539230D01*
X8367230Y4547700D01*
X8360800Y4560400D01*
X8357580Y4577340D01*
X8360800Y4592150D01*
X8368840Y4606970D01*
X8378490Y4615440D01*
X8389750Y4617550D01*
X8402620Y4613320D01*
X8412270Y4602730D01*
X8421920Y4583680D01*
G01X8519250Y4662000D02*
X8530510Y4659880D01*
X8543370Y4653540D01*
X8551420Y4642950D01*
X8554630Y4628130D01*
X8551420Y4613320D01*
X8541770Y4600620D01*
X8527290Y4594270D01*
X8511210D01*
X8501560Y4590030D01*
X8493510Y4579450D01*
X8490300Y4564630D01*
X8495130Y4549820D01*
X8506380Y4539230D01*
X8519250Y4535000D01*
X8532120Y4539230D01*
X8543370Y4549820D01*
X8548200Y4564630D01*
X8544980Y4579450D01*
X8536940Y4590030D01*
X8527290Y4594270D01*
X8511210D01*
X8496730Y4600620D01*
X8487080Y4613320D01*
X8483870Y4628130D01*
X8487080Y4642950D01*
X8495130Y4653540D01*
X8507990Y4659880D01*
X8519250Y4662000D01*
G01X8203000Y4734000D02*
X8233000D01*
Y4674000D01*
X8203000D01*
Y4734000D01*
G01X8907370Y4486420D02*
X8917020Y4492770D01*
X8928270Y4497000D01*
X8941140D01*
X8955620Y4490650D01*
X8966870Y4480070D01*
X8974920Y4467370D01*
X8981350Y4446200D01*
X8982960Y4427150D01*
X8979740Y4408100D01*
X8974920Y4395400D01*
X8965270Y4382700D01*
X8954010Y4374230D01*
X8942750Y4370000D01*
X8931490D01*
X8920230Y4374230D01*
X8910580Y4380580D01*
X8902540Y4389050D01*
G01X8813250Y4370000D02*
Y4497000D01*
X8832550Y4471600D01*
G01Y4370000D02*
X8793950D01*
G01X8683750Y4497000D02*
X8696620Y4492770D01*
X8706270Y4482180D01*
X8712700Y4469490D01*
X8717530Y4452550D01*
X8719130Y4433500D01*
X8717530Y4414450D01*
X8712700Y4397510D01*
X8706270Y4384810D01*
X8696620Y4374230D01*
X8683750Y4370000D01*
X8670880Y4374230D01*
X8661230Y4384810D01*
X8654800Y4397510D01*
X8649970Y4414450D01*
X8648370Y4433500D01*
X8649970Y4452550D01*
X8654800Y4469490D01*
X8661230Y4482180D01*
X8670880Y4492770D01*
X8683750Y4497000D01*
G01X8584810Y4475830D02*
X8575160Y4488530D01*
X8563900Y4494880D01*
X8551030Y4497000D01*
X8534950Y4492770D01*
X8523690Y4482180D01*
X8520470Y4469490D01*
X8522080Y4456780D01*
X8528520Y4446200D01*
X8560680Y4425030D01*
X8575160Y4410220D01*
X8584810Y4389050D01*
X8588030Y4370000D01*
X8520470D01*
G01X8761370Y4862420D02*
X8771020Y4868770D01*
X8782270Y4873000D01*
X8795140D01*
X8809620Y4866650D01*
X8820870Y4856070D01*
X8828920Y4843370D01*
X8835350Y4822200D01*
X8836960Y4803150D01*
X8833740Y4784100D01*
X8828920Y4771400D01*
X8819270Y4758700D01*
X8808010Y4750230D01*
X8796750Y4746000D01*
X8785490D01*
X8774230Y4750230D01*
X8764580Y4756580D01*
X8756540Y4765050D01*
G01X8694590Y4760810D02*
X8683330Y4750230D01*
X8670470Y4746000D01*
X8657600Y4750230D01*
X8646340Y4762930D01*
X8638300Y4781980D01*
X8635080Y4801030D01*
Y4824320D01*
X8638300Y4843370D01*
X8646340Y4860300D01*
X8655990Y4868770D01*
X8667250Y4873000D01*
X8680120Y4868770D01*
X8689770Y4860300D01*
X8696200Y4847600D01*
X8699420Y4830660D01*
X8696200Y4815850D01*
X8688160Y4801030D01*
X8678510Y4792560D01*
X8667250Y4790450D01*
X8654380Y4794680D01*
X8644730Y4805270D01*
X8635080Y4824320D01*
G01X8540970Y4746000D02*
X8537750Y4773510D01*
X8532920Y4796800D01*
X8526490Y4817970D01*
X8518450Y4841250D01*
X8505580Y4873000D01*
X8569920D01*
G01X8648000Y4239000D02*
X8678000D01*
Y4179000D01*
X8648000D01*
Y4239000D01*
G01X8740630Y4050580D02*
X8730980Y4044230D01*
X8719730Y4040000D01*
X8706860D01*
X8692380Y4046350D01*
X8681130Y4056930D01*
X8673080Y4069630D01*
X8666650Y4090800D01*
X8665040Y4109850D01*
X8668260Y4128900D01*
X8673080Y4141600D01*
X8682730Y4154300D01*
X8693990Y4162770D01*
X8705250Y4167000D01*
X8716510D01*
X8727770Y4162770D01*
X8737420Y4156420D01*
X8745460Y4147950D01*
G01X8834750Y4167000D02*
Y4040000D01*
X8815450Y4065400D01*
G01Y4167000D02*
X8854050D01*
G01X8964250Y4040000D02*
X8951380Y4044230D01*
X8941730Y4054820D01*
X8935300Y4067510D01*
X8930470Y4084450D01*
X8928870Y4103500D01*
X8930470Y4122550D01*
X8935300Y4139490D01*
X8941730Y4152190D01*
X8951380Y4162770D01*
X8964250Y4167000D01*
X8977120Y4162770D01*
X8986770Y4152190D01*
X8993200Y4139490D01*
X8998030Y4122550D01*
X8999630Y4103500D01*
X8998030Y4084450D01*
X8993200Y4067510D01*
X8986770Y4054820D01*
X8977120Y4044230D01*
X8964250Y4040000D01*
G01X9090530Y4167000D02*
X9093750Y4139490D01*
X9098580Y4116200D01*
X9105010Y4095030D01*
X9113050Y4071750D01*
X9125920Y4040000D01*
X9061580D01*
G01X8814580Y3458370D02*
X8808230Y3468020D01*
X8804000Y3479270D01*
Y3492140D01*
X8810350Y3506620D01*
X8820930Y3517870D01*
X8833630Y3525920D01*
X8854800Y3532350D01*
X8873850Y3533960D01*
X8892900Y3530740D01*
X8905600Y3525920D01*
X8918300Y3516270D01*
X8926770Y3505010D01*
X8931000Y3493750D01*
Y3482490D01*
X8926770Y3471230D01*
X8920420Y3461580D01*
X8911950Y3453540D01*
G01X8931000Y3364250D02*
X8804000D01*
X8829400Y3383550D01*
G01X8931000D02*
Y3344950D01*
G01X8804000Y3234750D02*
X8808230Y3247620D01*
X8818820Y3257270D01*
X8831510Y3263700D01*
X8848450Y3268530D01*
X8867500Y3270130D01*
X8886550Y3268530D01*
X8903490Y3263700D01*
X8916190Y3257270D01*
X8926770Y3247620D01*
X8931000Y3234750D01*
X8926770Y3221880D01*
X8916190Y3212230D01*
X8903490Y3205800D01*
X8886550Y3200970D01*
X8867500Y3199370D01*
X8848450Y3200970D01*
X8831510Y3205800D01*
X8818820Y3212230D01*
X8808230Y3221880D01*
X8804000Y3234750D01*
G01X8931000Y3105250D02*
X8928880Y3093990D01*
X8922540Y3081130D01*
X8911950Y3073080D01*
X8897130Y3069870D01*
X8882320Y3073080D01*
X8869620Y3082730D01*
X8863270Y3097210D01*
Y3113290D01*
X8859030Y3122940D01*
X8848450Y3130990D01*
X8833630Y3134200D01*
X8818820Y3129370D01*
X8808230Y3118120D01*
X8804000Y3105250D01*
X8808230Y3092380D01*
X8818820Y3081130D01*
X8833630Y3076300D01*
X8848450Y3079520D01*
X8859030Y3087560D01*
X8863270Y3097210D01*
Y3113290D01*
X8869620Y3127770D01*
X8882320Y3137420D01*
X8897130Y3140630D01*
X8911950Y3137420D01*
X8922540Y3129370D01*
X8928880Y3116510D01*
X8931000Y3105250D01*
G01X8809580Y4076370D02*
X8803230Y4086020D01*
X8799000Y4097270D01*
Y4110140D01*
X8805350Y4124620D01*
X8815930Y4135870D01*
X8828630Y4143920D01*
X8849800Y4150350D01*
X8868850Y4151960D01*
X8887900Y4148740D01*
X8900600Y4143920D01*
X8913300Y4134270D01*
X8921770Y4123010D01*
X8926000Y4111750D01*
Y4100490D01*
X8921770Y4089230D01*
X8915420Y4079580D01*
X8906950Y4071540D01*
G01X8926000Y3982250D02*
X8799000D01*
X8824400Y4001550D01*
G01X8926000D02*
Y3962950D01*
G01X8799000Y3852750D02*
X8803230Y3865620D01*
X8813820Y3875270D01*
X8826510Y3881700D01*
X8843450Y3886530D01*
X8862500Y3888130D01*
X8881550Y3886530D01*
X8898490Y3881700D01*
X8911190Y3875270D01*
X8921770Y3865620D01*
X8926000Y3852750D01*
X8921770Y3839880D01*
X8911190Y3830230D01*
X8898490Y3823800D01*
X8881550Y3818970D01*
X8862500Y3817370D01*
X8843450Y3818970D01*
X8826510Y3823800D01*
X8813820Y3830230D01*
X8803230Y3839880D01*
X8799000Y3852750D01*
G01X8906950Y3758630D02*
X8917540Y3748990D01*
X8923880Y3737730D01*
X8926000Y3723250D01*
X8921770Y3708770D01*
X8913300Y3697520D01*
X8898490Y3689470D01*
X8881550Y3687870D01*
X8864620Y3691080D01*
X8854030Y3699130D01*
X8845570Y3710380D01*
X8843450Y3721640D01*
X8845570Y3732900D01*
X8854030Y3747370D01*
X8799000Y3742550D01*
Y3699130D01*
G01X8787580Y4444370D02*
X8781230Y4454020D01*
X8777000Y4465270D01*
Y4478140D01*
X8783350Y4492620D01*
X8793930Y4503870D01*
X8806630Y4511920D01*
X8827800Y4518350D01*
X8846850Y4519960D01*
X8865900Y4516740D01*
X8878600Y4511920D01*
X8891300Y4502270D01*
X8899770Y4491010D01*
X8904000Y4479750D01*
Y4468490D01*
X8899770Y4457230D01*
X8893420Y4447580D01*
X8884950Y4439540D01*
G01X8904000Y4350250D02*
X8777000D01*
X8802400Y4369550D01*
G01X8904000D02*
Y4330950D01*
G01X8777000Y4220750D02*
X8781230Y4233620D01*
X8791820Y4243270D01*
X8804510Y4249700D01*
X8821450Y4254530D01*
X8840500Y4256130D01*
X8859550Y4254530D01*
X8876490Y4249700D01*
X8889190Y4243270D01*
X8899770Y4233620D01*
X8904000Y4220750D01*
X8899770Y4207880D01*
X8889190Y4198230D01*
X8876490Y4191800D01*
X8859550Y4186970D01*
X8840500Y4185370D01*
X8821450Y4186970D01*
X8804510Y4191800D01*
X8791820Y4198230D01*
X8781230Y4207880D01*
X8777000Y4220750D01*
G01Y4091250D02*
X8781230Y4104120D01*
X8791820Y4113770D01*
X8804510Y4120200D01*
X8821450Y4125030D01*
X8840500Y4126630D01*
X8859550Y4125030D01*
X8876490Y4120200D01*
X8889190Y4113770D01*
X8899770Y4104120D01*
X8904000Y4091250D01*
X8899770Y4078380D01*
X8889190Y4068730D01*
X8876490Y4062300D01*
X8859550Y4057470D01*
X8840500Y4055870D01*
X8821450Y4057470D01*
X8804510Y4062300D01*
X8791820Y4068730D01*
X8781230Y4078380D01*
X8777000Y4091250D01*
G01X8854000Y4674000D02*
X8824000D01*
Y4734000D01*
X8854000D01*
Y4674000D01*
G01X8924000Y3784000D02*
Y3814000D01*
X8984000D01*
Y3784000D01*
X8924000D01*
G01X8976000Y4537000D02*
Y4507000D01*
X8916000D01*
Y4537000D01*
X8976000D01*
G01X9003000Y3551000D02*
Y3521000D01*
X8943000D01*
Y3551000D01*
X9003000D01*
G01X9112420Y3876630D02*
X9118770Y3866980D01*
X9123000Y3855730D01*
Y3842860D01*
X9116650Y3828380D01*
X9106070Y3817130D01*
X9093370Y3809080D01*
X9072200Y3802650D01*
X9053150Y3801040D01*
X9034100Y3804260D01*
X9021400Y3809080D01*
X9008700Y3818730D01*
X9000230Y3829990D01*
X8996000Y3841250D01*
Y3852510D01*
X9000230Y3863770D01*
X9006580Y3873420D01*
X9015050Y3881460D01*
G01X8996000Y3970750D02*
X9123000D01*
X9097600Y3951450D01*
G01X8996000D02*
Y3990050D01*
G01Y4100250D02*
X9123000D01*
X9097600Y4080950D01*
G01X8996000D02*
Y4119550D01*
G01X9123000Y4229750D02*
X9118770Y4216880D01*
X9108180Y4207230D01*
X9095490Y4200800D01*
X9078550Y4195970D01*
X9059500Y4194370D01*
X9040450Y4195970D01*
X9023510Y4200800D01*
X9010810Y4207230D01*
X9000230Y4216880D01*
X8996000Y4229750D01*
X9000230Y4242620D01*
X9010810Y4252270D01*
X9023510Y4258700D01*
X9040450Y4263530D01*
X9059500Y4265130D01*
X9078550Y4263530D01*
X9095490Y4258700D01*
X9108180Y4252270D01*
X9118770Y4242620D01*
X9123000Y4229750D01*
G01X8998000Y4169000D02*
Y4139000D01*
X8938000D01*
Y4169000D01*
X8998000D01*
G01X9000000Y4298000D02*
X8970000D01*
Y4358000D01*
X9000000D01*
Y4298000D01*
M02*
